<?xml version="1.0" encoding="UTF-8" standalone="no"?>
<svg
   xmlns:dc="http://purl.org/dc/elements/1.1/"
   xmlns:cc="http://creativecommons.org/ns#"
   xmlns:rdf="http://www.w3.org/1999/02/22-rdf-syntax-ns#"
   xmlns:svg="http://www.w3.org/2000/svg"
   xmlns="http://www.w3.org/2000/svg"
   xmlns:sodipodi="http://sodipodi.sourceforge.net/DTD/sodipodi-0.dtd"
   xmlns:inkscape="http://www.inkscape.org/namespaces/inkscape"
   sodipodi:docname="angery.svg"
   inkscape:version="1.0 (4035a4fb49, 2020-05-01)"
   id="svg848"
   version="1.1"
   viewBox="0 0 93.021782 88.876236"
   height="88.876236mm"
   width="93.021782mm">
  <defs
     id="defs842">
    <marker
       inkscape:isstock="true"
       style="overflow:visible"
       id="DotL"
       refX="0"
       refY="0"
       orient="auto"
       inkscape:stockid="DotL">
      <path
         transform="matrix(0.8,0,0,0.8,5.92,0.8)"
         style="fill:#000000;fill-opacity:1;fill-rule:evenodd;stroke:#000000;stroke-width:1pt;stroke-opacity:1"
         d="m -2.5,-1 c 0,2.76 -2.24,5 -5,5 -2.76,0 -5,-2.24 -5,-5 0,-2.76 2.24,-5 5,-5 2.76,0 5,2.24 5,5 z"
         id="path1487" />
    </marker>
  </defs>
  <sodipodi:namedview
     inkscape:window-maximized="1"
     inkscape:window-y="37"
     inkscape:window-x="10"
     inkscape:window-height="719"
     inkscape:window-width="1344"
     fit-margin-bottom="0"
     fit-margin-right="0"
     fit-margin-left="0"
     fit-margin-top="0"
     showgrid="false"
     inkscape:document-rotation="0"
     inkscape:current-layer="layer1"
     inkscape:document-units="mm"
     inkscape:cy="239.78542"
     inkscape:cx="345.48835"
     inkscape:zoom="0.95190135"
     inkscape:pageshadow="2"
     inkscape:pageopacity="0.0"
     borderopacity="1.0"
     bordercolor="#666666"
     pagecolor="#ffffff"
     id="base" />
  <metadata
     id="metadata845">
    <rdf:RDF>
      <cc:Work
         rdf:about="">
        <dc:format>image/svg+xml</dc:format>
        <dc:type
           rdf:resource="http://purl.org/dc/dcmitype/StillImage" />
        <dc:title></dc:title>
      </cc:Work>
    </rdf:RDF>
  </metadata>
  <g
     transform="translate(-85.3507,-101.41156)"
     id="layer1"
     inkscape:groupmode="layer"
     inkscape:label="Calque 1">
    <path
       transform="matrix(0.26458333,0,0,0.26458333,46.135677,67.879864)"
       d="m 367.67383,126.74219 c -34.21043,0.44581 -69.78958,18.91355 -101.15039,38.30273 -18.84015,11.64813 -16.74734,8.986 -32.72461,22.32422 -30.69631,25.6261 -65.18133,62.65909 -78.40039,101.16016 -17.6936,51.53333 -2.02845,108.7719 39.54101,143.71484 9.1477,7.68949 17.37034,15.62147 28.63477,20.23242 54.9315,22.48532 104.56983,3.62738 155.43555,-17.4414 12.69248,-5.25729 26.62183,-8.92755 38.85937,-15.34961 80.95555,-42.48435 96.42523,-110.0093 70.2207,-190.45703 -4.60365,-14.13321 -22.72507,-29.99714 -31.36132,-43.25391 -4.81399,-7.38951 -12.23996,-19.16216 -19.0879,-24.41797 -1.99796,-1.5335 -15.62953,-12.99927 -15.67968,-13.25586 l -5.79492,-7.32422 C 400.76268,130.6063 384.38124,126.52447 367.67383,126.74219 Z m 62.59765,57.60937 a 9.4488187,9.4488187 0 0 1 9.44922,9.44922 9.4488187,9.4488187 0 0 1 -9.44922,9.44922 c -3.29635,0 -6.49424,1.33026 -11.58984,3.76367 -1.27882,0.61071 -2.41524,1.11763 -3.47852,1.58594 0.10124,0.006 0.20336,0.0158 0.26172,0.01 a 15.11811,15.11811 0 0 1 2.1836,-0.14844 15.11811,15.11811 0 0 1 13.38476,8.23047 15.11811,15.11811 0 0 1 -4.14843,18.79492 15.11811,15.11811 0 0 1 -13.70899,4.27344 15.11811,15.11811 0 0 1 -12.2168,-14.49805 c -0.10382,-0.81702 -0.5249,-1.64848 -0.46484,-2.41992 0.0833,-1.07024 0.25295,-2.01562 0.47266,-2.86328 -2.96625,3.37462 -4.88278,6.56351 -7.4336,12.07421 -0.60423,1.30538 -0.89864,1.82654 -1.37304,2.70899 a 9.4488187,9.4488187 0 0 1 2.56054,8.42383 9.4488187,9.4488187 0 0 1 -11.05859,7.5 c -0.27247,-0.0522 -1.5061,-0.0825 -3.75,-0.90821 -2.24391,-0.82571 -5.78313,-3.48223 -7.12305,-6.91015 -2.08947,-5.34524 -0.55524,-9.99792 0.6875,-12.93946 1.24279,-2.94149 2.5775,-5.09606 2.90821,-5.81054 4.50765,-9.73818 9.44401,-16.25754 17.05859,-23.40039 0.48045,-0.45071 1.85892,-2.55465 5.23437,-4.85742 4.74411,-3.2366 8.98802,-4.52904 11.85547,-5.89844 5.19088,-2.47888 11.54914,-5.60938 19.73828,-5.60938 z m -178.20117,6.51563 a 9.4488185,9.4488185 0 0 1 3.29492,0.55664 c 15.92701,5.71404 28.71831,10.15768 41.16993,25.02344 2.36496,2.82345 5.72262,6.39025 8.23828,11.53906 0.66217,1.35545 0.37445,1.44896 0.48633,2.28125 a 9.4488185,9.4488185 0 0 1 -4.57618,12.07617 9.4488185,9.4488185 0 0 1 -12.64648,-4.32617 c -0.54735,-1.1181 -0.27365,-1.18869 -0.41992,-1.9707 -0.79687,-1.54417 -2.3109,-3.51559 -4.20899,-5.82422 -0.0208,1.52136 -0.0427,3.12166 -0.043,3.12304 -4.9e-4,0.002 -1.94004,4.98026 -1.9414,4.98242 -0.001,0.002 -1.81102,2.46747 -2.69531,3.27735 -0.8843,0.80988 -1.69922,1.37871 -2.41211,1.80859 -5.70324,3.43907 -6.25977,2.13098 -7.21289,2.17774 -0.95313,0.0467 -1.45019,0.0109 -1.9043,-0.0156 -1.8164,-0.10601 -2.78398,-0.29068 -4.15625,-0.57422 -1.37227,-0.2835 -2.64198,-0.46672 -5.21875,-1.625 -1.28837,-0.57913 -3.10474,-0.83735 -6.22266,-4.77539 -1.55898,-1.96906 -3.50083,-5.66171 -3.33008,-10.15039 0.17076,-4.48872 2.52669,-8.27792 4.4004,-10.19531 1.86512,-1.90775 3.42565,-2.34406 5.02734,-3.02539 0.80028,-0.57559 1.65102,-1.57149 2.3457,-1.81641 0.10509,-0.037 0.18989,-0.0614 0.29102,-0.0957 -3.27372,-1.26113 -6.96739,-2.53984 -11.34766,-4.11133 a 9.4488185,9.4488185 0 0 1 -5.70703,-12.08398 9.4488185,9.4488185 0 0 1 8.62891,-6.25391 9.4488185,9.4488185 0 0 1 0.16015,-0.002 z m 13.3418,24.57812 c -0.0286,0.0116 -0.0764,0.0391 -0.0957,0.043 a 15.11811,15.11811 0 0 1 0.13671,-0.0254 c -0.0133,-0.006 -0.0276,-0.0114 -0.041,-0.0176 z m -11.06445,2.375 c -0.26408,0.24348 -0.44845,0.16093 -0.7168,0.43555 -0.69063,0.70685 -1.07713,1.90485 -1.64648,3.01172 0.75451,-1.19278 1.23123,-2.23177 2.36328,-3.44727 z m 147.2832,2.52149 c -0.13638,0.45765 -0.26006,0.96504 -0.34766,1.53906 0.12119,-0.587 0.23692,-1.08944 0.34766,-1.53906 z m -63.375,97.1289 c 5.08176,-0.0333 10.19366,0.27039 15.29687,0.88477 7.20443,0.86732 16.25123,1.24312 25.34961,5.89844 11.52291,5.89579 18.80221,15.19847 23.94532,25.72461 1.88107,3.84982 2.62052,7.18715 3.55078,9.69336 0.93025,2.5062 1.98652,3.5164 1.48437,3.17382 a 9.4488189,9.4488189 0 0 1 2.48047,13.13282 9.4488189,9.4488189 0 0 1 -13.13281,2.48046 c -5.2724,-3.59682 -7.15638,-8.46535 -8.54883,-12.21679 -1.39245,-3.75145 -2.36432,-7.04763 -2.8125,-7.96485 -4.15593,-8.50571 -7.96191,-13.30625 -15.57422,-17.20117 -4.61159,-2.35959 -11.11343,-3.01321 -19.00195,-3.96289 -23.31999,-2.80747 -44.71589,1.71898 -62.51758,16.41016 -3.05915,2.52461 -6.27763,5.99636 -10.07617,9.64062 -11.25748,10.80008 -21.37181,21.29478 -24.06445,33.66797 a 9.4488189,9.4488189 0 0 1 -11.24219,7.22656 9.4488189,9.4488189 0 0 1 -7.2207,-11.24218 c 4.21303,-19.35973 18.0823,-32.38389 29.44726,-43.28711 3.20251,-3.07246 6.69878,-6.92672 11.13281,-10.58594 16.62516,-13.72018 36.20099,-20.28283 56.4336,-21.32617 1.68604,-0.087 3.37639,-0.13539 5.07031,-0.14649 z"
       style="fill:#ffffff;fill-opacity:0.93932498;stroke:none;stroke-width:0;stroke-linecap:butt;stroke-linejoin:miter;stroke-miterlimit:4;stroke-dasharray:none;stroke-opacity:1"
       id="path1723" />
  </g>
</svg>
