<?xml version="1.0" encoding="UTF-8" standalone="no"?>
<svg
   xmlns:dc="http://purl.org/dc/elements/1.1/"
   xmlns:cc="http://creativecommons.org/ns#"
   xmlns:rdf="http://www.w3.org/1999/02/22-rdf-syntax-ns#"
   xmlns:svg="http://www.w3.org/2000/svg"
   xmlns="http://www.w3.org/2000/svg"
   xmlns:sodipodi="http://sodipodi.sourceforge.net/DTD/sodipodi-0.dtd"
   xmlns:inkscape="http://www.inkscape.org/namespaces/inkscape"
   inkscape:version="1.0 (4035a4fb49, 2020-05-01)"
   sodipodi:docname="announcement.svg"
   xml:space="preserve"
   style="enable-background:new 0 0 239.563 239.563;"
   viewBox="0 0 239.563 239.563"
   y="0px"
   x="0px"
   id="Layer_1"
   version="1.1"><metadata
   id="metadata49"><rdf:RDF><cc:Work
       rdf:about=""><dc:format>image/svg+xml</dc:format><dc:type
         rdf:resource="http://purl.org/dc/dcmitype/StillImage" /><dc:title></dc:title></cc:Work></rdf:RDF></metadata><defs
   id="defs47">
	

		
	
			
			
			
		</defs><sodipodi:namedview
   inkscape:current-layer="Layer_1"
   inkscape:window-maximized="0"
   inkscape:window-y="27"
   inkscape:window-x="0"
   inkscape:cy="156.1702"
   inkscape:cx="166.84913"
   inkscape:zoom="1.7326201"
   showgrid="false"
   id="namedview45"
   inkscape:window-height="739"
   inkscape:window-width="1364"
   inkscape:pageshadow="2"
   inkscape:pageopacity="0"
   guidetolerance="10"
   gridtolerance="10"
   objecttolerance="10"
   borderopacity="1"
   bordercolor="#666666"
   pagecolor="#ffffff" />
<path
   style="fill:#ffffff;fill-opacity:1"
   d="M 198.989,79.377 188.106,90.26 c 5.623,7.789 8.976,17.32 8.976,27.637 0,10.32 -3.353,19.851 -8.976,27.637 l 10.883,10.883 c 8.326,-10.629 13.31,-24 13.31,-38.52 0,-14.52 -4.984,-27.89 -13.31,-38.52 z"
   id="path4" /><path
   style="fill:#ffffff;fill-opacity:1"
   d="m 218.358,60.009 -10.794,10.794 c 10.482,12.856 16.782,29.252 16.782,47.094 0,17.845 -6.3,34.238 -16.782,47.094 l 10.794,10.794 c 13.216,-15.648 21.205,-35.849 21.205,-57.888 0,-22.039 -7.989,-42.24 -21.205,-57.888 z"
   id="path6" />
<g
   style="fill:#ffffff;fill-opacity:1"
   id="g14">
</g>
<g
   style="fill:#ffffff;fill-opacity:1"
   id="g16">
</g>
<g
   style="fill:#ffffff;fill-opacity:1"
   id="g18">
</g>
<g
   style="fill:#ffffff;fill-opacity:1"
   id="g20">
</g>
<g
   style="fill:#ffffff;fill-opacity:1"
   id="g22">
</g>
<g
   style="fill:#ffffff;fill-opacity:1"
   id="g24">
</g>
<g
   style="fill:#ffffff;fill-opacity:1"
   id="g26">
</g>
<g
   style="fill:#ffffff;fill-opacity:1"
   id="g28">
</g>
<g
   style="fill:#ffffff;fill-opacity:1"
   id="g30">
</g>
<g
   style="fill:#ffffff;fill-opacity:1"
   id="g32">
</g>
<g
   style="fill:#ffffff;fill-opacity:1"
   id="g34">
</g>
<g
   style="fill:#ffffff;fill-opacity:1"
   id="g36">
</g>
<g
   style="fill:#ffffff;fill-opacity:1"
   id="g38">
</g>
<g
   style="fill:#ffffff;fill-opacity:1"
   id="g40">
</g>
<g
   style="fill:#ffffff;fill-opacity:1"
   id="g42">
</g>
<path
   d="m 109.99609,67.404297 c -1.26094,0.106763 -2.22691,1.060594 -3.35036,1.556968 -6.00431,3.309787 -12.008613,6.619573 -18.012918,9.92936 -16.282197,0.0665 -32.574816,-0.207285 -48.847139,0.472291 -7.028516,0.517795 -13.697575,3.730954 -18.953577,8.348707 -6.316963,5.576398 -10.554611,13.586537 -11.1010282,22.040657 -0.7252332,9.61937 3.0380302,19.47867 10.0538822,26.11307 4.605355,4.43587 10.491859,7.64901 16.820899,8.72032 5.247721,0.68151 10.553667,0.4373 15.830857,0.53122 11.818563,0.0472 23.637249,0.0234 35.455872,0.0276 6.150358,3.33793 12.199142,6.87994 18.503902,9.91992 1.86754,0.632 3.77956,1.12092 5.65821,1.71875 0.95411,-2.4952 2.54856,-4.82188 2.74609,-7.54882 0.22254,-9.33486 0.30727,-18.67564 0.31085,-28.01441 -0.003,-15.51487 0.0988,-31.033953 -0.34601,-46.544189 -0.0587,-2.125515 -1.43048,-3.843585 -2.375,-5.640625 -0.33977,-0.992101 -1.33267,-1.715632 -2.39453,-1.630859 z"
   style="fill:#ffffff;stroke-width:24.9362;paint-order:stroke fill markers;fill-opacity:1"
   id="path874" /><path
   d="m 149.05664,47.220703 c -3.48873,0.152652 -6.46573,2.174981 -9.48665,3.699059 -6.87909,3.709639 -13.70005,7.524014 -20.55241,11.283363 -0.10707,33.298176 -0.21332,66.596355 -0.32031,99.894535 9.20691,4.94132 18.19836,10.30099 27.64257,14.78711 2.21546,0.92596 4.81997,0.65414 6.85301,-0.59941 2.83083,-1.5482 5.14813,-4.16126 6.12068,-7.25432 0.69126,-3.33824 0.46656,-6.77061 0.5955,-10.15667 0.26055,-19.00521 0.0972,-38.0127 0.0762,-57.01887 -0.0565,-13.594469 -0.028,-27.191182 -0.32834,-40.783011 -0.11009,-2.438298 -0.16716,-4.951385 -0.99874,-7.269755 -1.20977,-2.765045 -3.77367,-4.670176 -6.40902,-5.967399 -1.0048,-0.427159 -2.0999,-0.650181 -3.19254,-0.614632 z"
   style="fill:#ffffff;stroke-width:24.9362;paint-order:stroke fill markers;fill-opacity:1"
   id="path876" /><path
   d="m 75.40625,148.18555 c -8.056279,0.071 -16.11718,-0.12886 -24.170008,0.14752 -3.8995,0.26021 -7.967156,2.15554 -9.799609,5.76409 -1.492603,2.84316 -1.929366,6.07191 -2.925663,9.09505 -2.030021,7.26343 -4.175852,14.4978 -6.065658,21.79802 -0.918113,5.50538 3.511142,11.11667 9.004482,11.75193 4.600549,0.48893 9.372233,0.0692 14.041545,0.064 3.19169,-0.0675 6.383373,-0.13534 9.575067,-0.20263 3.39077,-12.27714 7.078159,-24.47407 10.188992,-36.82654 0.888159,-3.86447 1.777118,-7.72875 2.664524,-11.59339 -0.837891,6.5e-4 -1.675781,0.001 -2.513672,0.002 z"
   style="fill:#ffffff;stroke-width:24.9362;paint-order:stroke fill markers;fill-opacity:1"
   id="path878" /></svg>
