<?xml version="1.0" encoding="UTF-8" standalone="no"?>
<svg
   xmlns:dc="http://purl.org/dc/elements/1.1/"
   xmlns:cc="http://creativecommons.org/ns#"
   xmlns:rdf="http://www.w3.org/1999/02/22-rdf-syntax-ns#"
   xmlns:svg="http://www.w3.org/2000/svg"
   xmlns="http://www.w3.org/2000/svg"
   xmlns:sodipodi="http://sodipodi.sourceforge.net/DTD/sodipodi-0.dtd"
   xmlns:inkscape="http://www.inkscape.org/namespaces/inkscape"
   width="400.00003"
   height="400"
   id="svg27183"
   version="1.1"
   inkscape:version="1.0 (4035a4fb49, 2020-05-01)"
   sodipodi:docname="brain.svg">
  <defs
     id="defs27185" />
  <sodipodi:namedview
     id="base"
     pagecolor="#ffffff"
     bordercolor="#666666"
     borderopacity="1.0"
     inkscape:pageopacity="0.0"
     inkscape:pageshadow="2"
     inkscape:zoom="0.70000002"
     inkscape:cx="131.68991"
     inkscape:cy="234.55588"
     inkscape:document-units="px"
     inkscape:current-layer="layer1"
     showgrid="false"
     inkscape:window-width="666"
     inkscape:window-height="719"
     inkscape:window-x="688"
     inkscape:window-y="37"
     inkscape:window-maximized="1"
     inkscape:document-rotation="0"
     fit-margin-top="0"
     fit-margin-left="0"
     fit-margin-right="0"
     fit-margin-bottom="0" />
  <metadata
     id="metadata27188">
    <rdf:RDF>
      <cc:Work
         rdf:about="">
        <dc:format>image/svg+xml</dc:format>
        <dc:type
           rdf:resource="http://purl.org/dc/dcmitype/StillImage" />
        <dc:title></dc:title>
      </cc:Work>
    </rdf:RDF>
  </metadata>
  <g
     inkscape:label="Layer 1"
     inkscape:groupmode="layer"
     id="layer1"
     transform="translate(-4.999985,-698.24526)">
    <path
       style="fill:#ffffff;fill-opacity:1"
       d="m 242.07118,1046.3912 c 7.2601,-1.1236 11.2182,-2.256 16.154,-4.6217 9.1519,-4.3863 16.0089,-13.25 16.5299,-21.3671 0.2148,-3.3484 0.044,-4.2591 -1.8359,-9.7829 -2.0296,-5.9637 -5.834,-14.708 -10.0293,-23.05174 -1.1568,-2.30071 -2.0042,-4.28224 -1.883,-4.40342 0.3519,-0.35189 3.9707,3.9648 7.4248,8.85672 4.6407,6.57253 8.0077,13.17364 10.4697,20.52634 l 2.1703,6.4813 3.7484,1.5605 c 7.3774,3.0712 12.4695,4.0772 21.8497,4.3163 7.9129,0.2017 8.8658,0.1261 13.5164,-1.0721 8.9471,-2.3052 15.6742,-6.1969 21.8182,-12.622 4.3665,-4.5662 6.2462,-7.4172 8.8582,-13.4356 2.9211,-6.73038 4.2977,-8.98848 7.6013,-12.46839 3.6076,-3.8001 7.1901,-6.31745 15.8091,-11.10866 14.9243,-8.29627 19.842,-12.72808 23.7933,-21.44259 2.7556,-6.07733 3.2287,-8.78171 3.2084,-18.34281 -0.021,-9.83296 -0.7614,-14.29237 -3.9766,-23.94338 -2.8148,-8.44955 -8.0169,-18.38357 -11.6525,-22.25213 -1.4682,-1.56218 -3.7427,-1.83009 -5.4406,-0.64077 -1.6455,1.15255 -3.9139,5.03043 -6.6032,11.28833 -5.7935,13.48113 -17.3119,38.26305 -16.8715,36.2991 0.1234,-0.55084 1.5749,-6.86047 3.2254,-14.02141 3.6764,-15.95028 4.2627,-20.19446 3.9085,-28.29317 -0.5654,-12.92499 -4.0515,-23.17734 -12.9595,-38.11309 -6.0257,-10.10303 -10.8589,-15.08779 -17.6943,-18.24927 -5.7294,-2.64989 -10.77,-3.82824 -16.7207,-3.90872 l -5.2541,-0.0711 -0.653,2.22975 c -0.3591,1.22632 -1.0186,4.71916 -1.4654,7.76185 -1.1647,7.93016 -0.7689,13.79872 1.5383,22.80847 2.2886,8.93685 2.6986,13.30547 1.6029,17.07477 -0.7405,2.54734 -3.8825,7.05453 -4.5005,6.45596 -0.1451,-0.14056 0.091,-2.16866 0.5255,-4.50688 1.1179,-6.02119 0.9383,-8.0858 -1.611,-18.52308 -1.2445,-5.09528 -2.3977,-11.0669 -2.5626,-13.27026 -0.4882,-6.52036 0.8249,-15.60257 4.3795,-30.29045 1.7085,-7.05983 1.6488,-9.05958 -0.4002,-13.40011 -2.318,-4.91029 -9.0135,-10.80885 -16.5845,-14.61055 -9.6854,-4.86343 -23.7156,-7.24196 -31.4858,-5.33775 -10.7827,2.64243 -17.7153,9.77537 -30.0902,30.95991 -10.4272,17.85041 -16.6585,41.05854 -16.0344,59.72023 0.2342,7.00164 0.2032,7.35854 -0.4572,5.25803 -2.9538,-9.39484 -3.4294,-16.9652 -1.7131,-27.26232 2.3539,-14.12221 5.5407,-23.76919 12.1681,-36.83554 6.0668,-11.96121 7.0823,-15.03461 6.8276,-20.6641 -0.4468,-9.87328 -5.9745,-15.19014 -20.6553,-19.86753 -22.3431,-7.11857 -48.8008,-1.06708 -55.5439,12.70419 -2.497,5.09949 -2.8448,7.82265 -3.3627,26.32515 -0.7533,26.91409 -1.1649,32.55144 -2.7419,37.55734 -2.0919,6.64019 -4.5268,10.90064 -7.198,12.59468 -1.2374,0.78469 -2.7675,1.42673 -3.4004,1.42673 -1.1179,0 -1.1023,-0.0631 0.5491,-2.2266 4.1483,-5.4346 6.2891,-17.53077 7.0698,-39.94619 l 0.3089,-8.872 -2.2496,-2.40502 c -7.6817,-8.21234 -25.081,-12.72854 -37.1484,-9.64222 -7.071504,1.80861 -13.246304,6.92237 -17.012404,14.08926 -5.3807,10.23958 -6.3077,20.08617 -4.0239,42.74321 1.0731,10.64515 1.1278,12.14709 0.4795,13.14507 -0.8665,1.33373 -0.9546,1.33994 -5.4663,0.38428 -1.9279,-0.40837 -5.2383,-0.74639 -7.3566,-0.75114 -2.1182,-0.005 -3.9727,-0.20517 -4.1212,-0.44528 -0.1484,-0.24017 0.6834,-0.7834 1.8484,-1.2073 1.8452,-0.67132 3.3465,-1.04008 8.7554,-2.15063 1.0963,-0.22509 1.1201,-0.358 0.8268,-4.60338 -0.2598,-3.76114 -0.47,-4.52571 -1.5053,-5.47501 -2.4103,-2.21037 -9.2022,-2.90648 -12.6435,-1.29588 -2.9277,1.37025 -7.2323,6.01924 -8.9968,9.71669 -2.5486,5.3402 -3.2544,8.90725 -2.9602,14.96034 0.3087,6.3497 1.4892,10.02346 7.0015,21.78952 10.2395,21.8561 12.1168,32.68468 7.3279,42.26801 -0.8213,1.64371 -2.2668,3.6676 -3.2119,4.49747 -1.6136,1.41676 -4.9337,2.53752 -5.5857,1.88558 -0.1615,-0.1615 0.411,-1.09617 1.2722,-2.07707 7.4136,-8.44359 6.128,-20.98524 -4.417,-43.09077 l -3.3548,-7.03284 -3.9663,-0.61078 c -8.8107,-1.35672 -16.5455,-5.21511 -21.4987,-10.72418 -2.7673,-3.0779 -4.1363,-5.58587 -5.2695,-9.65288 l -0.8371,-3.00459 -3.3047,5.108 c -6.3428,9.80417 -10.3088999,17.78495 -12.1440999,24.43711 -0.4559,1.65252 -0.9431,5.48335 -1.0827,8.51298 -0.2311,5.0152 -0.135,5.86184 1.0733,9.45593 2.1668,6.44489 6.6545999,12.55257 12.8586999,17.49992 1.2677,1.01094 2.5071,1.82769 2.7542,1.81492 0.247,-0.013 1.1252,-0.8835 1.9515,-1.93495 0.8262,-1.05146 2.8632,-2.98155 4.5267,-4.2891 3.021,-2.37478 8.7435,-5.96946 8.7435,-5.49249 0,0.13877 -1.2076,1.67586 -2.6836,3.41572 -6.5703,7.74502 -8.7944,12.26252 -9.2093,18.70546 -0.8199,12.73339 8.3875,26.06359 20.5554,29.75948 2.8639,0.86988 4.3478,1.00779 8.7842,0.81635 9.1883,-0.3964 14.1377,-3.0485 24.4778,-13.11633 3.9327,-3.82924 7.1505,-6.82346 7.1505,-6.6539 0,0.1695 -0.483,1.59909 -1.0733,3.1768 -1.409,3.7659 -3.7554,7.68738 -6.9778,11.66175 l -2.6152,3.22548 1.5697,4.78675 c 3.7355,11.39082 10.0403,17.92562 20.6978,21.45272 6.697004,2.2164 12.117904,2.8128 21.950004,2.4148 10.5731,-0.4279 16.8434,-1.3049 16.5989,-2.3216 -1.0741,-4.4663 -0.2358,-17.69253 1.5067,-23.76991 l 0.5743,-2.00306 0.3892,1.50229 c 0.2141,0.82627 0.7428,5.67822 1.175,10.78218 0.4321,5.1039 1.1313,10.6065 1.5537,12.2279 1.9677,7.5545 7.7484,14.4039 15.5488,18.423 6.8914,3.5508 12.9785,5.0195 21.075,5.0848 3.6259,0.029 6.7165,-0.07 6.8681,-0.2214 0.1515,-0.1511 -0.2933,-1.683 -0.9886,-3.4043 -2.1692,-5.3705 -2.7288,-9.5047 -2.9587,-21.8601 -0.2428,-13.04759 -0.4348,-13.2214 3.0425,2.7542 2.2487,10.3307 4.2704,16.5223 6.4974,19.8985 4.1745,6.3286 14.0426,11.6211 25.984,13.9357 4.3206,0.8375 18.8271,0.5672 25.5706,-0.4764 z m -80.5553,-43.7665 c -4.5452,-7.19999 -6.8791,-20.73861 -5.3628,-31.1086 0.3338,-2.28258 0.5029,-4.25409 0.3758,-4.38114 -0.6589,-0.659 -8.833,-2.27051 -14.0589,-2.77168 -12.9747,-1.24445 -20.6834,0.98766 -31.4378,9.10295 l -1.6501,1.24515 1.2274,-1.74591 c 0.675,-0.96027 2.8866,-3.62038 4.9146,-5.91138 5.6891,-6.42711 7.2944,-10.81531 6.1272,-16.74867 -0.7625,-3.87532 -2.4853,-7.31322 -4.85,-9.67788 -2.157,-2.15704 -7.6124,-4.8489 -12.19,-6.01503 -4.1623,-1.06032 -11.409304,-0.69221 -15.953104,0.81039 -1.7509,0.57903 -3.2761,0.96026 -3.3892,0.84719 -0.3064,-0.30642 3.6106,-2.93113 6.5074,-4.36056 1.9146,-0.94469 2.639,-1.62057 2.9522,-2.7542 0.6179,-2.23637 0.064,-5.99095 -1.335,-9.04642 -1.2101,-2.64328 -5.8754,-7.85842 -9.0632,-10.13154 l -1.5023,-1.07124 1.5475,-0.016 c 2.1169,-0.0215 6.9267,2.48108 10.0641,5.23682 3.5037,3.07755 5.2461,6.70203 5.5579,11.56155 l 0.238604,3.71708 h 1.8452 c 9.3985,0 19.0135,5.93631 23.0989,14.26127 1.6026,3.26559 1.7125,3.80747 1.6751,8.26262 -0.027,3.17134 -0.3218,5.50655 -0.8817,6.97415 -0.4629,1.2135 -0.7734,2.27467 -0.6898,2.3582 0.083,0.0835 1.4943,-0.2264 3.1351,-0.68876 4.7478,-1.33779 19.581,-1.17314 25.432,0.28239 2.4317,0.60487 4.5115,1.09982 4.6219,1.09982 0.1103,0 0.6834,-0.95771 1.2734,-2.12824 3.264,-6.47569 8.9243,-12.17304 15.5568,-15.65831 l 3.4668,-1.82173 -3.5256,-2.47593 c -8.5723,-6.02004 -15.2976,-18.06544 -17.8656,-31.99834 -0.6516,-3.53504 -0.8773,-7.39469 -0.8785,-15.02293 0,-12.57911 1.0757,-21.35371 4.9619,-40.40294 4.2571,-20.86701 5.8219,-25.75167 9.2749,-28.95296 1.6142,-1.49653 1.6191,-1.49748 1.2762,-0.25038 -1.228,4.46642 -6.4931,27.61131 -7.7462,34.05199 -2.9211,15.01317 -3.3028,18.77962 -3.2982,32.5497 0,14.33589 0.5828,18.37726 3.9956,27.93182 2.6109,7.30956 8.4224,15.21699 13.6411,18.56049 2.9473,1.88834 9.9495,4.25179 15.8931,5.36444 4.8942,0.9162 15.8679,0.78205 19.2843,-0.23581 1.0826,-0.32254 3.0056,-1.79434 5.0076,-3.8329 5.4606,-5.55994 9.3428,-7.77387 20.2761,-11.56305 1.928,-0.66817 6.0968,-1.66129 9.2642,-2.20687 9.6552,-1.66329 14.1777,-4.42481 17.2263,-10.51866 3.9962,-7.98803 4.1697,-14.57554 0.8245,-31.30899 -1.1065,-5.5346 -2.2166,-12.42221 -2.467,-15.30571 -0.4978,-5.73361 0.01,-12.89074 1.0973,-15.5504 0.6406,-1.56288 0.6923,-1.35767 1.0244,4.07007 0.6617,10.81326 2.7792,22.99921 5.8376,33.59404 3.5444,12.27835 1.973,23.2818 -4.4826,31.38965 l -1.9997,2.51159 4.9393,0.59861 c 12.9486,1.56935 20.7409,5.13239 25.769,11.78294 l 1.4484,1.91583 3.8096,-0.33867 c 8.6156,-0.76592 14.0516,-3.14946 19.3731,-8.49452 6.2385,-6.26602 9.4599,-13.25068 11.9198,-25.84479 0.7263,-3.71817 1.6158,-9.68979 1.9767,-13.27026 l 0.6561,-6.50994 0.6911,2.25344 c 0.4566,1.48888 0.6732,4.54715 0.6385,9.01376 -0.1657,21.29119 -8.4313,38.49336 -21.4482,44.63759 -2.8218,1.33193 -8.4611,2.93723 -12.929,3.68047 -1.6619,0.27642 -1.8959,0.47307 -1.684,1.41531 0.1353,0.60182 0.627,2.7843 1.0928,4.84995 0.64,2.83869 0.9547,7.91303 1.2886,20.78173 0.433,16.67977 0.9684,21.95502 2.5238,24.86121 0.2984,0.55765 0.4479,1.10869 0.3321,1.22452 -0.3961,0.39605 -1.789,-1.54761 -3.801,-5.304 -2.4781,-4.62636 -2.8741,-7.24902 -3.5798,-23.70624 -0.6919,-16.13404 -1.9272,-21.79994 -5.9901,-27.47375 -3.6897,-5.15262 -9.3651,-7.96296 -19.5062,-9.65905 -7.1841,-1.20153 -21.9169,-0.84374 -27.9228,0.67814 -10.2511,2.59751 -15.9292,5.40946 -21.3813,10.58841 -7.6159,7.23435 -11.0329,16.92915 -9.1403,25.93325 1.3683,6.50964 7.9752,17.99267 16.0501,27.89574 5.0855,6.23681 5.2994,6.56541 3.7267,5.72539 -0.6529,-0.34878 -4.5761,-4.03311 -8.718,-8.1874 -6.0212,-6.03907 -8.1473,-8.55716 -10.6056,-12.56093 -3.2556,-5.30224 -5.3503,-10.72572 -5.9021,-15.28093 -0.4089,-3.376 0.3939,-9.51172 1.7491,-13.36746 0.5538,-1.5758 1.007,-2.87288 1.007,-2.8824 0,-0.01 -3.4365,-0.0391 -7.6367,-0.0654 -5.1348,-0.032 -8.8368,-0.31934 -11.3,-0.87634 -5.3354,-1.20649 -7.8901,-1.06647 -12.0821,0.66211 -10.3605,4.27233 -15.3899,9.64423 -18.5172,19.77815 -0.6567,2.128 -1.1902,5.55028 -1.3663,8.76338 -0.3361,6.13547 0.5468,20.34461 1.5564,25.04734 0.3838,1.7876 0.618,3.3299 0.5205,3.4274 -0.098,0.097 -0.7427,-0.7183 -1.4337,-1.813 z m 178.3825,-37.88895 c -1.83,-0.38203 -4.8994,-1.35512 -6.821,-2.1625 -3.3322,-1.40004 -12.1358,-5.99976 -12.1358,-6.34073 0,-0.0891 2.6026,0.58805 5.7836,1.50474 10.6838,3.07896 18.7079,3.44386 26.6803,1.21346 9.6597,-2.70253 16.372,-7.88013 27.2661,-21.03201 3.308,-3.9936 6.2301,-7.48643 6.4936,-7.76185 1.001,-1.0465 -6.3465,13.17416 -8.451,16.35632 -5.648,8.54024 -13.5915,14.72613 -22.3158,17.37808 -4.4573,1.35487 -12.1651,1.74937 -16.5,0.84449 z m -215.018,-42.82503 c -11.1227,-8.32802 -18.5905,-16.76012 -22.8013,-25.74579 -2.914104,-6.2186 -3.630404,-9.90002 -3.324204,-17.08604 0.3009,-7.06519 1.294104,-10.75722 5.538104,-20.58713 2.4217,-5.60937 3.4067,-8.79238 5.174,-16.71983 0.2661,-1.19327 0.3224,-1.15812 1.2039,0.75115 1.6572,3.58913 1.2996,8.52456 -1.1064,15.27332 -5.4358,15.24713 -6.4846,22.21016 -4.5253,30.04587 2.6905,10.76008 10.4447,21.33953 24.0064,32.75314 2.2602,1.9021 4.1093,3.71612 4.1093,4.03115 0,0.72276 -1.031,1.77456 -1.7395,1.77456 -0.2957,0 -3.2365,-2.02068 -6.535,-4.4904 z m 278.6955,-25.6225 c 3.3319,-11.7568 0.7553,-22.2318 -7.0784,-28.77669 l -2.056,-1.71777 -1.9169,1.73179 c -3.0822,2.78455 -6.9401,2.98696 -13.9951,0.73422 l -3.7557,-1.19923 6.4879,-0.14091 c 7.5943,-0.16496 7.9504,-0.34844 8.8252,-4.54715 0.7183,-3.44761 0.2656,-11.87888 -0.8371,-15.5923 -0.8782,-2.95707 -3.916,-6.58761 -6.6917,-7.99726 -2.8392,-1.442 -9.9199,-3.52093 -11.9918,-3.52093 -1.7391,0 -2.0347,0.21288 -3.4448,2.48134 -1.8745,3.01545 -4.8046,4.93518 -10.4667,6.85762 -2.2908,0.77779 -4.165,1.57435 -4.165,1.7702 0,0.1958 1.3149,2.45225 2.922,5.01431 1.6071,2.56206 3.786,6.23567 4.8421,8.16361 1.0561,1.92795 1.9609,3.56555 2.0107,3.63911 0.05,0.0736 1.4069,-0.65881 3.0155,-1.62749 1.6087,-0.96868 3.2014,-1.76124 3.5393,-1.76124 0.338,0 1.006,-0.15022 1.4845,-0.33386 0.4937,-0.18948 -0.2451,1.12107 -1.7087,3.03058 -1.4183,1.85048 -2.7166,3.91393 -2.8852,4.5855 -0.4468,1.78017 -0.034,4.40718 1.4864,9.47502 0.741,2.46867 1.5879,6.63753 1.8821,9.26414 0.8717,7.78499 0.7322,7.5624 2.6955,4.30207 3.7028,-6.14924 6.2761,-8.46182 10.095,-9.0725 5.4652,-0.87393 11.4924,5.51632 16.9493,17.97049 l 1.9359,4.41829 0.8882,-1.73109 c 0.4884,-0.95215 1.3585,-3.39108 1.9335,-5.41987 z m -353.278304,1.69453 c -1.9751,-5.11611 -2.4673,-14.88658 -1.0531,-20.90692 2.0384,-8.67775 7.806,-16.69729 14.1446,-19.66693 2.5636,-1.20113 3.5155,-1.36518 7.9214,-1.36518 2.7542,0 5.6837,0.17487 6.5099,0.38854 l 1.5023,0.38855 -0.1601,-8.65116 c -0.3047,-16.46845 2.1491,-26.46686 8.5017,-34.64174 l 2.3519,-3.02657 -2.2798,-0.86542 c -2.7432,-1.04129 -5.9721,-3.2074 -6.385,-4.28329 -0.1648,-0.42936 -0.2379,-0.82777 -0.1626,-0.88546 0.075,-0.0576 3.2078,0.34854 6.9611,0.90258 l 6.824,1.00734 3.3648,-1.84947 c 1.850604,-1.01721 4.751404,-2.17648 6.446204,-2.57614 3.9254,-0.92571 15.4918,-0.94449 19.745,-0.0321 3.017,0.64719 3.1725,0.63202 3.8809,-0.37943 2.071,-2.95671 -0.3691,-6.08854 -5.7999,-7.44416 -1.7749,-0.44303 -5.1424,-1.28361 -7.4835,-1.86795 -2.3411,-0.58434 -6.9014,-2.31874 -10.1341,-3.85419 -4.7591,-2.2605 -6.903104,-2.96938 -11.267204,-3.72534 -12.7038,-2.20066 -20.1212,-0.68599 -26.5242,5.41622 -3.9437,3.75854 -6.6021,8.39687 -9.6668,16.86676 -5.1433,14.21425 -7.1692,16.58727 -19.2322,22.52694 -8.6845,4.27608 -11.7474,6.74475 -14.0905,11.35689 -2.0046,3.94592 -2.7156,7.1404 -2.7204,12.22396 -0.01,3.76665 1.1814,13.12394 1.7318,13.67433 0.089,0.0884 0.7604,-1.1493 1.4931,-2.7506 0.7326,-1.60134 2.9529,-5.69299 4.9338,-9.09263 2.6293,-4.51229 3.646,-5.88944 3.7659,-5.10074 0.2142,1.40895 -1.6672,7.56751 -3.2896,10.76849 -1.9253,3.79855 -3.6112,9.1045 -4.1796,13.15379 -1.2613,8.98591 2.8302,16.87065 11.1013,21.39306 3.1422,1.71812 9.4659,3.70851 11.9062,3.74742 1.4011,0.0225 1.6247,-0.11908 1.3427,-0.8495 z m -4.6286,-61.91553 c 9.8134,-3.28642 10.7772,-4.28169 11.3628,-11.73406 0.3534,-4.49782 0.5979,-5.41117 2.2295,-8.32872 1.0079,-1.80225 1.8779,-3.2761 1.9332,-3.2752 0.055,0 0.1007,4.26571 0.1007,9.47737 0,8.83719 -0.071,9.57106 -1.0497,10.88998 -2.7046,3.64371 -7.5663,5.18381 -16.2267,5.14029 l -4.7572,-0.024 6.4074,-2.14578 z m 310.083704,7.1713 c 6.4728,-3.77151 8.0751,-6.37108 7.6436,-12.40143 -0.4461,-6.23507 -4.3796,-11.77488 -10.278,-14.47526 -2.8231,-1.29247 -11.7625,-3.09071 -15.5036,-3.11871 -2.0297,-0.015 -2.1179,0.0501 -2.4479,1.80912 -0.1882,1.00368 -0.2148,3.96224 -0.059,6.57458 l 0.2834,4.74976 -1.6387,-2.44329 c -3.3962,-5.06333 -4.7384,-11.43931 -3.0822,-14.6419 0.7355,-1.42242 6.1641,-5.37636 6.6771,-4.86333 0.158,0.15795 0.045,1.0757 -0.2506,2.03947 -0.2957,0.96372 -0.5025,1.75307 -0.4594,1.75413 0.043,0 2.8884,0.55239 6.3229,1.22512 3.4346,0.67277 6.3274,1.14049 6.4285,1.03933 0.3802,-0.38023 -1.0597,-6.09826 -2.0037,-7.95664 -2.0698,-4.07478 -7.0962,-7.68969 -15.2973,-11.0015 -3.9591,-1.59879 -13.6667,-4.08884 -28.6622,-7.35208 -6.4664,-1.40719 -11.8559,-2.6573 -11.9765,-2.77799 -0.1207,-0.12068 4.5503,-0.21943 10.38,-0.21943 8.6245,0 10.5995,-0.12745 10.5995,-0.68385 0,-0.37612 -0.7951,-2.27337 -1.767,-4.21603 -3.1389,-6.27423 -8.7063,-10.8694 -15.7926,-13.03486 -3.9904,-1.21936 -11.2312,-1.84616 -15.7442,-1.36288 -2.8423,0.30442 -3.2731,0.47713 -2.9649,1.18872 0.1983,0.4579 0.4666,2.24327 0.5962,3.96751 0.2181,2.90233 0.3334,3.15546 1.554,3.41191 1.5759,0.33105 13.8075,5.07339 15.5902,6.04457 l 1.252,0.682 -1.252,-0.25755 c -6.1736,-1.26994 -18.5423,-2.74975 -22.963,-2.74729 -12.1824,0.007 -24.4282,3.30379 -30.3559,8.17298 l -1.4898,1.22376 -2.0369,-3.57365 c -1.1203,-1.96555 -3.0026,-5.37621 -4.1831,-7.57927 l -2.1463,-4.00557 4.3177,4.42691 c 2.443,2.50482 4.58,4.29971 4.9218,4.13396 0.3323,-0.16104 1.6701,-1.06282 2.9731,-2.00391 4.5608,-3.29408 14.3743,-5.75734 23.0605,-5.78834 5.4704,-0.0195 5.7289,-0.18778 5.1367,-3.34435 -1.0277,-5.47832 -14.9776,-13.71228 -27.0608,-15.97278 -6.8834,-1.28777 -17.5928,-0.82842 -23.2856,0.99877 -4.3708,1.40289 -9.8771,4.15815 -10.9902,5.49935 -0.3449,0.41553 -0.661,1.49413 -0.7024,2.39686 -0.073,1.59628 -0.01,1.65236 2.4285,2.04526 5.4474,0.8789 7.7618,1.4411 7.7618,1.88538 0,0.27492 -5.7411,0.46486 -14.0509,0.46486 -10.1932,0 -13.9564,-0.15308 -13.7065,-0.5575 0.7162,-1.15872 4.6739,-2.41959 8.6304,-2.7496 3.8726,-0.32294 4.1041,-0.40842 4.1041,-1.51505 0,-1.4397 -2.4967,-3.19734 -6.761,-4.75962 -4.0607,-1.48772 -13.4288,-1.59644 -18.2772,-0.21213 -4.6054,1.31496 -8.4193,3.1762 -9.3176,4.5471 -0.8307,1.26778 -0.5593,2.18959 1.38,4.6884 1.2238,1.57686 1.1695,2.73623 -0.1999,4.26116 -0.9264,1.03172 -2.2709,1.48617 -7.5629,2.5563 -3.54,0.71584 -6.6923,1.21621 -7.0051,1.11195 -0.3129,-0.10431 1.4726,-1.244 3.9678,-2.53272 6.6653,-3.44251 6.6011,-3.38136 5.402,-5.1435 -0.5417,-0.79612 -1.2508,-2.06716 -1.5758,-2.82457 -0.5678,-1.32361 -0.7335,-1.37709 -4.268,-1.37709 -6.0468,0 -11.4136,2.44377 -15.7489,7.17134 -2.2511,2.45475 -2.5574,3.36659 -1.4422,4.2922 0.3773,0.31313 1.3196,1.97447 2.0939,3.69184 1.9742,4.37854 2.2632,9.94073 0.7718,14.85113 -0.5922,1.94957 -1.1588,3.54471 -1.2591,3.54471 -0.1004,0 -0.2088,-1.87687 -0.2411,-4.17082 -0.1077,-7.66185 -2.3637,-13.32895 -6.1961,-15.56466 -1.1633,-0.67859 -4.0304,-1.72879 -6.3715,-2.33377 -7.785,-2.01172 -18.3327,-0.44818 -22.1795,3.28782 -2.9764,2.89067 -3.1183,7.29489 -0.3371,10.46248 1.5209,1.73229 1.8592,1.85908 10.2479,3.84081 5.9105,1.39623 11.1381,3.90997 13.4477,6.46637 1.5922,1.76244 1.8256,2.34388 1.8256,4.548 0,1.39002 -0.3546,3.21305 -0.788,4.05123 -0.4335,0.83818 -0.7152,1.56619 -0.626,1.61782 0.089,0.0516 1.6093,0.76307 3.3781,1.58097 1.7687,0.81789 4.4265,2.33211 5.9062,3.36493 1.4796,1.03283 2.7596,1.87787 2.8445,1.87787 0.085,0 0.308,-2.18854 0.4961,-4.86342 0.8033,-11.42745 3.488,-18.35893 9.1967,-23.74426 5.4687,-5.15897 13.0821,-8.45721 23.5697,-10.21089 6.2725,-1.0488 19.4741,-0.81589 26.3472,0.46486 10.1909,1.899 19.2744,6.11013 24.7195,11.46005 3.0856,3.03163 5.9386,8.33182 6.414,11.91534 0.1794,1.35257 0.3654,2.45921 0.4133,2.45921 0.048,0 2.3428,-2.19711 5.0998,-4.88246 8.4825,-8.26196 13.879,-10.69192 24.4796,-11.02283 5.2781,-0.16475 7.3677,-0.01 11.0429,0.81945 21.4264,4.83378 36.728,17.10432 37.5907,30.14428 0.1918,2.90038 -0.017,4.72566 -0.9481,8.28264 l -1.1942,4.56237 4.8071,0.31503 c 12.8389,0.84139 25.4127,6.93248 32.0146,15.50878 1.204,1.56414 2.3343,2.84384 2.5118,2.84384 0.1774,0 1.8964,-0.917 3.82,-2.03781 z"
       id="path3960"
       inkscape:connector-curvature="0"
       sodipodi:nodetypes="ssscsssscsssssssscsscscssssscscssccsssssssssssssssscssscsssssccccsscssssscccscssccssssscscscsscsssscsssccccsssccsssssscsccsccscssscssssccsccssccsccssscsscsscscsssccscssscssccsscssssccsscccssccssssssscssssscscssscccccssssssscssssccsscssssscsscscsssssssscsscscccsssccscscsccsscsccscsscssssssssscccscssscccsscscccccscscsscsscccccssssssssccscscccsccscsccscsscccssccssscscsccsssscsssssssssssccsssssssssssscsscssss" />
  </g>
</svg>
