<?xml version="1.0" encoding="UTF-8" standalone="no"?>
<svg
   xmlns:dc="http://purl.org/dc/elements/1.1/"
   xmlns:cc="http://creativecommons.org/ns#"
   xmlns:rdf="http://www.w3.org/1999/02/22-rdf-syntax-ns#"
   xmlns:svg="http://www.w3.org/2000/svg"
   xmlns="http://www.w3.org/2000/svg"
   xmlns:sodipodi="http://sodipodi.sourceforge.net/DTD/sodipodi-0.dtd"
   xmlns:inkscape="http://www.inkscape.org/namespaces/inkscape"
   width="324.59961"
   height="365.0661"
   viewBox="0 0 324.59961 365.0661"
   version="1.1"
   preserveAspectRatio="xMidYMid"
   id="svg10"
   sodipodi:docname="c.svg"
   inkscape:version="0.92.4 5da689c313, 2019-01-14">
  <metadata
     id="metadata16">
    <rdf:RDF>
      <cc:Work
         rdf:about="">
        <dc:format>image/svg+xml</dc:format>
        <dc:type
           rdf:resource="http://purl.org/dc/dcmitype/StillImage" />
        <dc:title></dc:title>
      </cc:Work>
    </rdf:RDF>
  </metadata>
  <defs
     id="defs14" />
  <sodipodi:namedview
     pagecolor="#ffffff"
     bordercolor="#666666"
     borderopacity="1"
     objecttolerance="10"
     gridtolerance="10"
     guidetolerance="10"
     inkscape:pageopacity="0"
     inkscape:pageshadow="2"
     inkscape:window-width="1346"
     inkscape:window-height="728"
     id="namedview12"
     showgrid="false"
     inkscape:zoom="1.1588694"
     inkscape:cx="200.68393"
     inkscape:cy="102.52879"
     inkscape:window-x="9"
     inkscape:window-y="29"
     inkscape:window-maximized="0"
     inkscape:current-layer="g8"
     fit-margin-top="0"
     fit-margin-left="0"
     fit-margin-right="0"
     fit-margin-bottom="0" />
  <g
     id="g8"
     transform="translate(6.9760101,30.872833)">
    <path
       d="m 154.9361,-30.871097 c -5.7125,0.0625 -11.41289,1.81289 -17.21289,5.21289 -17.2,10.1 -103.400001,59.498439 -129.0000011,74.398439 -10.6,6.1 -15.699219,15.50117 -15.699219,27.70117 V 226.84179 c 0,6 1.298828,11.29844 3.798828,15.89844 2.60000002,4.7 6.600391,8.70078 11.900391,11.80078 25.7000001,14.9 111.8000011,64.20039 129.0000011,74.40039 11.6,6.8 22.9,7.09883 34.5,0.29883 43.2,-25 86.49922,-49.79922 129.69922,-74.69922 5.4,-3.1 9.30039,-7.00078 11.90039,-11.80078 2.5,-4.6 3.80078,-9.89844 3.80078,-15.89844 V 76.341792 c 0,-6.1 -1.3,-11.60117 -4,-16.20117 -2.6,-4.6 -6.50117,-8.40039 -11.70117,-11.40039 -43.2,-24.9 -86.49922,-49.7992201 -129.69922,-74.69922 -5.85,-3.35 -11.57461,-4.974609 -17.28711,-4.912109 z m 0.1875,74.611329 c 39.9,0 74.70039,21.70039 93.40039,53.90039 L 201.6236,124.64062 c -9.3,-16 -26.60039,-26.798828 -46.40039,-26.798828 -29.7,0 -53.69922,23.999218 -53.69922,53.699218 0,9.7 2.59961,18.69961 7.09961,26.59961 9.2,16.2 26.59961,27.09961 46.59961,27.09961 20.1,0 37.60078,-11.09844 46.80078,-27.39844 l 46.89844,27.09961 c -18.6,32.5 -53.59922,54.40039 -93.69922,54.40039 -40,0 -74.999608,-21.80156 -93.599608,-54.10156 -9.1,-15.8 -14.30078,-34.19922 -14.30078,-53.69922 0,-59.499998 48.20078,-107.800778 107.800778,-107.800778 z"
       id="XMLID_3_"
       style="fill:#fdfdfd;fill-opacity:1;opacity:1"
       inkscape:connector-curvature="0"
       sodipodi:nodetypes="sccssccccccsscccssccsscsccscss" />
  </g>
</svg>
