<?xml version="1.0" encoding="UTF-8" standalone="no"?>
<!-- Generator: Adobe Illustrator 16.0.4, SVG Export Plug-In . SVG Version: 6.00 Build 0)  -->

<svg
   xmlns:dc="http://purl.org/dc/elements/1.1/"
   xmlns:cc="http://creativecommons.org/ns#"
   xmlns:rdf="http://www.w3.org/1999/02/22-rdf-syntax-ns#"
   xmlns:svg="http://www.w3.org/2000/svg"
   xmlns="http://www.w3.org/2000/svg"
   xmlns:sodipodi="http://sodipodi.sourceforge.net/DTD/sodipodi-0.dtd"
   xmlns:inkscape="http://www.inkscape.org/namespaces/inkscape"
   version="1.1"
   id="Layer_1"
   x="0px"
   y="0px"
   width="306px"
   height="344.35px"
   viewBox="0 0 306 344.35"
   enable-background="new 0 0 306 344.35"
   xml:space="preserve"
   sodipodi:docname="cpp.svg"
   inkscape:version="0.92.4 5da689c313, 2019-01-14"><metadata
   id="metadata25"><rdf:RDF><cc:Work
       rdf:about=""><dc:format>image/svg+xml</dc:format><dc:type
         rdf:resource="http://purl.org/dc/dcmitype/StillImage" /><dc:title /></cc:Work></rdf:RDF></metadata><defs
   id="defs23">
	

	

	
</defs><sodipodi:namedview
   pagecolor="#ffffff"
   bordercolor="#666666"
   borderopacity="1"
   objecttolerance="10"
   gridtolerance="10"
   guidetolerance="10"
   inkscape:pageopacity="0"
   inkscape:pageshadow="2"
   inkscape:window-width="1346"
   inkscape:window-height="728"
   id="namedview21"
   showgrid="false"
   inkscape:zoom="1.3706984"
   inkscape:cx="250.83629"
   inkscape:cy="217.58181"
   inkscape:window-x="9"
   inkscape:window-y="29"
   inkscape:window-maximized="0"
   inkscape:current-layer="Layer_1" />
<path
   style="fill:#ffffff;fill-opacity:1"
   d="M 153 0 C 148.19675 -2.9605947e-16 143.3935 1.05225 139.75 3.15625 L 13.25 76.189453 C 5.962 80.396453 0 90.725625 0 99.140625 L 0 245.20898 C 0 249.41698 1.4905781 254.10272 3.8925781 258.26172 L 64.685547 223.16406 C 55.986035 208.15452 51 190.73732 51 172.17578 C 51 115.93278 96.757 70.175781 153 70.175781 C 189.292 70.175781 223.13808 89.704576 241.33008 121.14258 L 197.1875 146.6875 C 188.0825 130.9515 171.15 121.17578 153 121.17578 C 124.878 121.17578 102 144.05378 102 172.17578 C 102 181.456 104.50415 190.15755 108.85352 197.66211 L 153 172.17578 L 108.85352 197.66406 C 117.68384 212.89908 134.15915 223.17578 153 223.17578 C 171.152 223.17578 188.08541 213.39916 197.19141 197.66016 L 241.33398 223.20312 C 223.14198 254.64413 189.294 274.17578 153 274.17578 C 115.31854 274.17578 82.346278 253.63469 64.685547 223.16406 L 3.8925781 258.26367 C 6.2935781 262.42267 9.607 266.0552 13.25 268.1582 L 139.75 341.19336 C 147.037 345.40136 158.963 345.40136 166.25 341.19336 L 292.75 268.1582 C 296.394 266.0542 299.70642 262.42172 302.10742 258.26172 C 304.50842 254.10272 306 249.41698 306 245.20898 L 306 99.140625 C 306 94.932625 304.50942 90.246891 302.10742 86.087891 C 299.70542 81.927891 296.393 78.293453 292.75 76.189453 L 166.25 3.15625 C 162.6065 1.05225 157.80325 8.8817842e-16 153 0 z M 232.33398 155.17578 L 243.66602 155.17578 L 243.66602 166.50781 L 255 166.50781 L 255 177.8418 L 243.66602 177.8418 L 243.66602 189.17578 L 232.33398 189.17578 L 232.33398 177.8418 L 221 177.8418 L 221 166.50781 L 232.33398 166.50781 L 232.33398 155.17578 z M 274.83398 155.17578 L 286.16602 155.17578 L 286.16602 166.50781 L 297.5 166.50781 L 297.5 177.8418 L 286.16602 177.8418 L 286.16602 189.17578 L 274.83398 189.17578 L 274.83398 177.8418 L 263.5 177.8418 L 263.5 166.50781 L 274.83398 166.50781 L 274.83398 155.17578 z "
   id="path2" />





</svg>