<?xml version="1.0" encoding="UTF-8" standalone="no"?>
<!-- Generator: Adobe Illustrator 19.0.0, SVG Export Plug-In . SVG Version: 6.00 Build 0)  -->

<svg
   xmlns:dc="http://purl.org/dc/elements/1.1/"
   xmlns:cc="http://creativecommons.org/ns#"
   xmlns:rdf="http://www.w3.org/1999/02/22-rdf-syntax-ns#"
   xmlns:svg="http://www.w3.org/2000/svg"
   xmlns="http://www.w3.org/2000/svg"
   xmlns:sodipodi="http://sodipodi.sourceforge.net/DTD/sodipodi-0.dtd"
   xmlns:inkscape="http://www.inkscape.org/namespaces/inkscape"
   version="1.1"
   id="Layer_1"
   x="0px"
   y="0px"
   viewBox="0 0 324.59961 365.0661"
   xml:space="preserve"
   sodipodi:docname="csharp.svg"
   width="324.59961"
   height="365.0661"
   inkscape:version="0.92.4 5da689c313, 2019-01-14"><metadata
   id="metadata19"><rdf:RDF><cc:Work
       rdf:about=""><dc:format>image/svg+xml</dc:format><dc:type
         rdf:resource="http://purl.org/dc/dcmitype/StillImage" /><dc:title /></cc:Work></rdf:RDF></metadata><defs
   id="defs17">
	
	
	
	
</defs><sodipodi:namedview
   pagecolor="#ffffff"
   bordercolor="#666666"
   borderopacity="1"
   objecttolerance="10"
   gridtolerance="10"
   guidetolerance="10"
   inkscape:pageopacity="0"
   inkscape:pageshadow="2"
   inkscape:window-width="1346"
   inkscape:window-height="728"
   id="namedview15"
   showgrid="false"
   fit-margin-top="0"
   fit-margin-left="0"
   fit-margin-right="0"
   fit-margin-bottom="0"
   inkscape:zoom="0.472"
   inkscape:cx="-127.02511"
   inkscape:cy="-83.177387"
   inkscape:window-x="9"
   inkscape:window-y="29"
   inkscape:window-maximized="0"
   inkscape:current-layer="Layer_1" />
<style
   type="text/css"
   id="style2">
	.st0{fill:#9A4993;}
	.st1{fill:#6A1577;}
	.st2{fill:#813084;}
	.st3{fill:#FFFFFF;}
</style>
<path
   d="m 161.91211,0.00173627 c -5.7125,0.0625 -11.41289,1.81289003 -17.21289,5.21289003 C 127.49922,15.314626 41.299219,64.713065 15.699219,79.613065 5.099219,85.713065 0,95.114235 0,107.31424 v 150.40039 c 0,6 1.298828,11.29844 3.798828,15.89844 2.6,4.7 6.600391,8.70078 11.900391,11.80078 25.7,14.9 111.800001,64.20039 129.000001,74.40039 11.6,6.8 22.9,7.09883 34.5,0.29883 43.2,-25 86.49922,-49.79922 129.69922,-74.69922 5.4,-3.1 9.30039,-7.00078 11.90039,-11.80078 2.5,-4.6 3.80078,-9.89844 3.80078,-15.89844 v -150.5 c 0,-6.1 -1.3,-11.601175 -4,-16.201175 -2.6,-4.6 -6.50117,-8.40039 -11.70117,-11.40039 -43.2,-24.9 -86.49922,-49.79922 -129.69922,-74.6992197 -5.85,-3.35 -11.57461,-4.97460903 -17.28711,-4.91210903 z m 0.1875,74.61132873 c 39.9,0 74.70039,21.70039 93.40039,53.900395 l -46.90039,27 c -9.3,-16 -26.60039,-26.79883 -46.40039,-26.79883 -29.7,0 -53.69922,23.99922 -53.69922,53.69922 0,9.7 2.59961,18.69961 7.09961,26.59961 9.2,16.2 26.59961,27.09961 46.59961,27.09961 20.1,0 37.60078,-11.09844 46.80078,-27.39844 l 46.89844,27.09961 c -18.6,32.5 -53.59922,54.40039 -93.69922,54.40039 -40,0 -74.999611,-21.80156 -93.599611,-54.10156 -9.1,-15.8 -14.30078,-34.19922 -14.30078,-53.69922 0,-59.5 48.200781,-107.800785 107.800781,-107.800785 z m 95.5,82.300785 h 10.69922 v 8.69922 h 13 v -8.69922 H 292 v 8.69922 h 8.69922 v 10.70117 H 292 v 12.90039 h 8.69922 v 10.69922 H 292 v 8.69922 h -10.70117 v -8.69922 h -13 v 8.69922 h -10.69922 v -8.69922 H 249 v -10.69922 h 8.59961 V 176.31424 H 249 v -10.70117 h 8.59961 z m 10.69922,19.40039 v 12.90039 h 13 v -12.90039 z"
   id="XMLID_3_"
   style="fill:#ffffff;fill-opacity:1;stroke:none;stroke-opacity:1"
   inkscape:connector-curvature="0" />





</svg>