<?xml version="1.0" encoding="UTF-8" standalone="no"?>
<svg
   xmlns:dc="http://purl.org/dc/elements/1.1/"
   xmlns:cc="http://creativecommons.org/ns#"
   xmlns:rdf="http://www.w3.org/1999/02/22-rdf-syntax-ns#"
   xmlns:svg="http://www.w3.org/2000/svg"
   xmlns="http://www.w3.org/2000/svg"
   xmlns:sodipodi="http://sodipodi.sourceforge.net/DTD/sodipodi-0.dtd"
   xmlns:inkscape="http://www.inkscape.org/namespaces/inkscape"
   viewBox="0 0 377.95311 377.95313"
   version="1.1"
   id="svg12"
   sodipodi:docname="css.svg"
   width="100.00009mm"
   height="100.0001mm"
   inkscape:version="1.0 (4035a4fb49, 2020-05-01)">
  <metadata
     id="metadata18">
    <rdf:RDF>
      <cc:Work
         rdf:about="">
        <dc:format>image/svg+xml</dc:format>
        <dc:type
           rdf:resource="http://purl.org/dc/dcmitype/StillImage" />
        <dc:title>HTML5 Logo Badge</dc:title>
      </cc:Work>
    </rdf:RDF>
  </metadata>
  <defs
     id="defs16" />
  <sodipodi:namedview
     inkscape:pagecheckerboard="true"
     units="mm"
     inkscape:document-rotation="0"
     pagecolor="#ffffff"
     bordercolor="#666666"
     borderopacity="1"
     objecttolerance="10"
     gridtolerance="10"
     guidetolerance="10"
     inkscape:pageopacity="0"
     inkscape:pageshadow="2"
     inkscape:window-width="1366"
     inkscape:window-height="296"
     id="namedview14"
     showgrid="false"
     fit-margin-top="0"
     fit-margin-left="0"
     fit-margin-right="0"
     fit-margin-bottom="0"
     inkscape:zoom="0.69391222"
     inkscape:cx="132.49905"
     inkscape:cy="333.87943"
     inkscape:window-x="0"
     inkscape:window-y="27"
     inkscape:window-maximized="0"
     inkscape:current-layer="svg12" />
  <title
     id="title2">HTML5 Logo Badge</title>
  <path
     d="M 188.97656 0 C 84.607649 -9.9999911e-05 -9.9999907e-05 84.60765 0 188.97656 C -9.9999907e-05 293.34547 84.607649 377.95322 188.97656 377.95312 C 293.34547 377.95323 377.95322 293.34547 377.95312 188.97656 C 377.95323 84.607649 293.34547 -9.9999911e-05 188.97656 0 z M 118.00586 141.77539 C 127.77146 141.77539 135.93253 143.68643 142.48633 147.50586 C 149.04013 151.3253 153.85787 156.98939 156.93945 164.49805 L 145.1543 168.4043 C 143.02756 163.06577 139.60003 158.98524 134.86914 156.16406 C 130.18165 153.34289 124.60371 151.93164 118.13672 151.93164 C 107.98049 151.93164 100.0818 155.20987 94.439453 161.76367 C 88.797106 168.27407 85.974609 177.21444 85.974609 188.58594 C 85.974609 199.82723 88.904312 208.87676 94.763672 215.73438 C 100.66644 222.54859 108.63219 225.95508 118.6582 225.95508 C 131.50539 225.95508 141.16191 219.59785 147.62891 206.88086 L 157.78516 211.95898 C 157.76049 212.01058 157.73378 212.0599 157.70898 212.11133 L 165.96289 210.46094 C 167.35178 215.97308 170.30253 220.03061 174.81641 222.63477 C 179.33029 225.19553 185.47115 226.47656 193.24023 226.47656 C 201.26973 226.47656 207.45466 225.10937 211.79492 222.375 C 216.17859 219.59723 218.37109 215.5397 218.37109 210.20117 C 218.37109 207.20639 217.676 204.77452 216.28711 202.9082 C 214.94163 201.04189 213.03255 199.50238 210.55859 198.28711 C 208.08464 197.07183 205.13388 196.05121 201.70508 195.22656 C 198.27626 194.40191 194.4772 193.5115 190.31055 192.55664 C 183.0623 190.95075 177.55142 189.34613 173.77539 187.74023 C 170.04276 186.13433 167.09006 184.35351 164.91992 182.40039 C 162.74979 180.40386 161.08008 178.08311 159.9082 175.43555 C 158.77973 172.78799 158.21484 169.74913 158.21484 166.32031 C 158.21484 158.46443 161.20965 152.40972 167.19922 148.15625 C 173.23219 143.90279 181.84704 141.77539 193.04492 141.77539 C 203.46156 141.77539 211.42731 143.38195 216.93945 146.59375 C 222.45159 149.76214 226.31381 155.18687 228.52734 162.86914 L 216.28711 165.01758 C 214.94163 160.15648 212.3815 156.64084 208.60547 154.4707 C 204.82944 152.25717 199.60002 151.15039 192.91602 151.15039 C 185.58096 151.15039 179.98198 152.36633 176.11914 154.79688 C 172.25631 157.22743 170.32422 160.85223 170.32422 165.66992 C 170.32422 168.4911 171.06142 170.83486 172.53711 172.70117 C 174.0562 174.52409 176.22765 176.08659 179.04883 177.38867 C 181.87 178.64735 187.49004 180.20986 195.91016 182.07617 C 198.73133 182.72721 201.53082 183.39931 204.30859 184.09375 C 207.12977 184.74479 209.82011 185.54709 212.38086 186.50195 C 214.94162 187.41341 217.32944 188.49913 219.54297 189.75781 C 221.79991 191.01649 223.75304 192.55795 225.40234 194.38086 C 227.05164 196.20377 228.33268 198.35222 229.24414 200.82617 C 230.199 203.30013 230.67578 206.20682 230.67578 209.54883 C 230.67578 210.50138 230.62709 211.42591 230.54297 212.33008 L 239.89453 210.46094 C 241.28342 215.97308 244.23417 220.03061 248.74805 222.63477 C 253.26193 225.19553 259.40475 226.47656 267.17383 226.47656 C 275.20332 226.47656 281.38825 225.10937 285.72852 222.375 C 290.11219 219.59723 292.30273 215.5397 292.30273 210.20117 C 292.30273 207.20639 291.60959 204.77452 290.2207 202.9082 C 288.87522 201.04189 286.96419 199.50238 284.49023 198.28711 C 282.01628 197.07183 279.06553 196.05121 275.63672 195.22656 C 272.20791 194.40191 268.4108 193.5115 264.24414 192.55664 C 256.9959 190.95075 251.48306 189.34613 247.70703 187.74023 C 243.9744 186.13433 241.02365 184.35351 238.85352 182.40039 C 236.68338 180.40386 235.01171 178.08311 233.83984 175.43555 C 232.71137 172.78799 232.14648 169.74913 232.14648 166.32031 C 232.14648 158.46443 235.14129 152.40972 241.13086 148.15625 C 247.16383 143.90279 255.78063 141.77539 266.97852 141.77539 C 277.39516 141.77539 285.35895 143.38195 290.87109 146.59375 C 296.38323 149.76214 300.24545 155.18687 302.45898 162.86914 L 290.2207 165.01758 C 288.87522 160.15648 286.31314 156.64084 282.53711 154.4707 C 278.76108 152.25717 273.53167 151.15039 266.84766 151.15039 C 259.51261 151.15039 253.91362 152.36633 250.05078 154.79688 C 246.18795 157.22743 244.25586 160.85223 244.25586 165.66992 C 244.25586 168.4911 244.99502 170.83486 246.4707 172.70117 C 247.9898 174.52409 250.1593 176.08659 252.98047 177.38867 C 255.80164 178.64735 261.42168 180.20986 269.8418 182.07617 C 272.66297 182.72721 275.46247 183.39931 278.24023 184.09375 C 281.06141 184.74479 283.75369 185.54709 286.31445 186.50195 C 288.87521 187.41341 291.26108 188.49913 293.47461 189.75781 C 295.73155 191.01649 297.68468 192.55795 299.33398 194.38086 C 300.98328 196.20377 302.26432 198.35222 303.17578 200.82617 C 304.13063 203.30013 304.60742 206.20682 304.60742 209.54883 C 304.60742 218.01235 301.28709 224.56685 294.64648 229.21094 C 288.04928 233.85502 278.73933 236.17773 266.7168 236.17773 C 246.8829 236.17773 234.45489 230.0543 229.41797 217.82031 C 227.89888 222.41192 225.00302 226.21202 220.71484 229.21094 C 214.11764 233.85502 204.8077 236.17773 192.78516 236.17773 C 172.4268 236.17773 159.86614 229.72939 155.09766 216.83984 C 151.61846 222.3783 147.20003 226.76577 141.83398 229.99219 C 135.01977 234.11544 127.10003 236.17773 118.07227 236.17773 C 108.8275 236.17773 100.81964 234.2667 94.048828 230.44727 C 87.321415 226.58443 82.178159 221.0946 78.619141 213.97656 C 75.103525 206.81512 73.345703 198.35154 73.345703 188.58594 C 73.345703 173.95924 77.294074 162.50084 85.193359 154.21094 C 93.092645 145.92102 104.0302 141.77539 118.00586 141.77539 z "
     style="fill:#ffffff;fill-opacity:1;stroke-width:3.41049;stroke-miterlimit:4;stroke-dasharray:none"
     id="path1389" />
</svg>
