<?xml version="1.0" encoding="UTF-8" standalone="no"?>
<svg
   xmlns:dc="http://purl.org/dc/elements/1.1/"
   xmlns:cc="http://creativecommons.org/ns#"
   xmlns:rdf="http://www.w3.org/1999/02/22-rdf-syntax-ns#"
   xmlns:svg="http://www.w3.org/2000/svg"
   xmlns="http://www.w3.org/2000/svg"
   xmlns:sodipodi="http://sodipodi.sourceforge.net/DTD/sodipodi-0.dtd"
   xmlns:inkscape="http://www.inkscape.org/namespaces/inkscape"
   inkscape:version="1.0 (4035a4fb49, 2020-05-01)"
   height="855.20001"
   width="979.90009"
   sodipodi:docname="suggestion.svg"
   id="svg10"
   xml:space="preserve"
   enable-background="new 0 0 1000 1000"
   viewBox="0 0 979.90009 855.20001"
   y="0px"
   x="0px"
   version="1.1"><defs
   id="defs14" /><sodipodi:namedview
   inkscape:current-layer="svg10"
   inkscape:window-maximized="0"
   inkscape:window-y="37"
   inkscape:window-x="688"
   inkscape:cy="427.6"
   inkscape:cx="189.31857"
   inkscape:zoom="0.587"
   fit-margin-bottom="0"
   fit-margin-right="0"
   fit-margin-left="0"
   fit-margin-top="0"
   showgrid="false"
   id="namedview12"
   inkscape:window-height="719"
   inkscape:window-width="666"
   inkscape:pageshadow="2"
   inkscape:pageopacity="0"
   guidetolerance="10"
   gridtolerance="10"
   objecttolerance="10"
   borderopacity="1"
   bordercolor="#666666"
   pagecolor="#ffffff" />
<metadata
   id="metadata2"> Svg Vector Icons : http://www.onlinewebfonts.com/icon <rdf:RDF><cc:Work
     rdf:about=""><dc:format>image/svg+xml</dc:format><dc:type
       rdf:resource="http://purl.org/dc/dcmitype/StillImage" /><dc:title></dc:title></cc:Work></rdf:RDF></metadata>
<g
   style="fill:#ffffff;fill-opacity:1"
   transform="translate(-10,-72.4)"
   id="g8"><path
     style="fill:#ffffff;fill-opacity:1"
     id="path4"
     d="m 820,382.7 c -0.7,9.1 -1.6,18.6 -3.1,28.5 C 793.1,576 662.5,695.6 506.4,695.6 h -50.9 l -9.3,9.7 c 35.1,65.1 100.3,107.6 173.5,107.6 h 50.5 l 100,104.4 c 6.5,6.7 15.2,10.3 24.2,10.3 4.2,0 8.4,-0.8 12.5,-2.4 12.7,-5.1 21,-17.4 21,-31 V 808.8 C 921,789.5 989.9,702 989.9,596.4 990,488.3 916.1,398.8 820,382.7 Z" /><path
     style="fill:#ffffff;fill-opacity:1"
     id="path6"
     d="m 769.2,404.4 c 2.3,-16.2 3.4,-30.7 3.4,-44.5 C 772.6,201.4 653.1,72.4 506.3,72.4 h -230 C 129.5,72.4 10,201.4 10,359.9 c 0,142.3 94,259.7 220.1,283.2 v 121.2 c 0,15.9 9.7,30.2 24.5,36.2 4.7,1.9 9.6,2.8 14.5,2.8 10.5,0 20.7,-4.2 28.2,-12 L 435,647.4 h 71.4 c 132,0 242.5,-102.2 262.8,-243 z M 202.3,271 h 374.3 c 10.5,0 19,9 19,20.1 0,11.1 -8.5,20.1 -19,20.1 H 202.3 c -10.5,0 -19,-9 -19,-20.1 0,-11.1 8.5,-20.1 19,-20.1 z M 427,457.3 H 202.3 c -10.5,0 -19,-9 -19,-20 0,-11.1 8.5,-20.1 19,-20.1 H 427 c 10.5,0 19,9 19,20.1 0,11 -8.5,20 -19,20 z" /></g>
</svg>
