<?xml version="1.0" encoding="UTF-8" standalone="no"?>
<svg
   xmlns:dc="http://purl.org/dc/elements/1.1/"
   xmlns:cc="http://creativecommons.org/ns#"
   xmlns:rdf="http://www.w3.org/1999/02/22-rdf-syntax-ns#"
   xmlns:svg="http://www.w3.org/2000/svg"
   xmlns="http://www.w3.org/2000/svg"
   xmlns:sodipodi="http://sodipodi.sourceforge.net/DTD/sodipodi-0.dtd"
   xmlns:inkscape="http://www.inkscape.org/namespaces/inkscape"
   inkscape:version="1.0 (4035a4fb49, 2020-05-01)"
   sodipodi:docname="microchip.svg"
   xml:space="preserve"
   style="enable-background:new 0 0 511.984 511.984;"
   viewBox="0 0 511.984 511.984"
   y="0px"
   x="0px"
   id="Layer_1"
   version="1.1"><metadata
   id="metadata163"><rdf:RDF><cc:Work
       rdf:about=""><dc:format>image/svg+xml</dc:format><dc:type
         rdf:resource="http://purl.org/dc/dcmitype/StillImage" /><dc:title></dc:title></cc:Work></rdf:RDF></metadata><defs
   id="defs161" /><sodipodi:namedview
   inkscape:current-layer="Layer_1"
   inkscape:window-maximized="0"
   inkscape:window-y="37"
   inkscape:window-x="10"
   inkscape:cy="261.90418"
   inkscape:cx="-426.48621"
   inkscape:zoom="0.296221"
   showgrid="false"
   id="namedview159"
   inkscape:window-height="719"
   inkscape:window-width="1344"
   inkscape:pageshadow="2"
   inkscape:pageopacity="0"
   guidetolerance="10"
   gridtolerance="10"
   objecttolerance="10"
   borderopacity="1"
   bordercolor="#666666"
   pagecolor="#ffffff" />
<g
   style="fill:#ffffff;fill-opacity:1"
   id="g6">
	<g
   style="fill:#ffffff;fill-opacity:1"
   id="g4">
		<path
   style="fill:#ffffff;fill-opacity:1"
   id="path2"
   d="M408.643,47.998H103.341c-30.511,0-55.342,24.815-55.342,55.326v305.318c0,30.511,24.831,55.342,55.342,55.342h305.302    c30.511,0,55.342-24.831,55.342-55.358V103.325C463.986,72.814,439.154,47.998,408.643,47.998z M431.987,408.643    c0,12.864-10.464,23.343-23.343,23.343H103.341c-12.88,0-23.343-10.48-23.343-23.359V103.325    c0-12.864,10.464-23.327,23.343-23.327h305.302c12.88,0,23.343,10.464,23.343,23.327V408.643z" />
	</g>
</g>
<g
   style="fill:#ffffff;fill-opacity:1"
   id="g12">
	<g
   style="fill:#ffffff;fill-opacity:1"
   id="g10">
		<path
   style="fill:#ffffff;fill-opacity:1"
   id="path8"
   d="M191.994,0c-8.848,0-16,7.168-16,16v47.998c0,8.832,7.152,16,16,16s16-7.168,16-16V16C207.994,7.168,200.842,0,191.994,0z    " />
	</g>
</g>
<g
   style="fill:#ffffff;fill-opacity:1"
   id="g18">
	<g
   style="fill:#ffffff;fill-opacity:1"
   id="g16">
		<path
   style="fill:#ffffff;fill-opacity:1"
   id="path14"
   d="M127.996,0c-8.848,0-16,7.168-16,16v47.998c0,8.832,7.152,16,16,16c8.848,0,15.999-7.168,15.999-16V16    C143.995,7.168,136.844,0,127.996,0z" />
	</g>
</g>
<g
   style="fill:#ffffff;fill-opacity:1"
   id="g24">
	<g
   style="fill:#ffffff;fill-opacity:1"
   id="g22">
		<path
   style="fill:#ffffff;fill-opacity:1"
   id="path20"
   d="M383.988,0c-8.848,0-16,7.168-16,16v47.998c0,8.832,7.152,16,16,16c8.848,0,15.999-7.168,15.999-16V16    C399.987,7.168,392.836,0,383.988,0z" />
	</g>
</g>
<g
   style="fill:#ffffff;fill-opacity:1"
   id="g30">
	<g
   style="fill:#ffffff;fill-opacity:1"
   id="g28">
		<path
   style="fill:#ffffff;fill-opacity:1"
   id="path26"
   d="M319.99,0c-8.848,0-16,7.168-16,16v47.998c0,8.832,7.152,16,16,16s16-7.168,16-16V16C335.99,7.168,328.838,0,319.99,0z" />
	</g>
</g>
<g
   style="fill:#ffffff;fill-opacity:1"
   id="g36">
	<g
   style="fill:#ffffff;fill-opacity:1"
   id="g34">
		<path
   style="fill:#ffffff;fill-opacity:1"
   id="path32"
   d="M255.992,0c-8.848,0-16,7.168-16,16v47.998c0,8.832,7.152,16,16,16s16-7.168,16-16V16C271.992,7.168,264.84,0,255.992,0z" />
	</g>
</g>
<g
   style="fill:#ffffff;fill-opacity:1"
   id="g42">
	<g
   style="fill:#ffffff;fill-opacity:1"
   id="g40">
		<path
   style="fill:#ffffff;fill-opacity:1"
   id="path38"
   d="M191.994,431.987c-8.848,0-16,7.168-16,16v47.998c0,8.832,7.152,16,16,16s16-7.168,16-16v-47.998    C207.994,439.154,200.842,431.987,191.994,431.987z" />
	</g>
</g>
<g
   style="fill:#ffffff;fill-opacity:1"
   id="g48">
	<g
   style="fill:#ffffff;fill-opacity:1"
   id="g46">
		<path
   style="fill:#ffffff;fill-opacity:1"
   id="path44"
   d="M127.996,431.987c-8.848,0-16,7.168-16,16v47.998c0,8.832,7.152,16,16,16c8.848,0,15.999-7.168,15.999-16v-47.998    C143.995,439.154,136.844,431.987,127.996,431.987z" />
	</g>
</g>
<g
   style="fill:#ffffff;fill-opacity:1"
   id="g54">
	<g
   style="fill:#ffffff;fill-opacity:1"
   id="g52">
		<path
   style="fill:#ffffff;fill-opacity:1"
   id="path50"
   d="M383.988,431.987c-8.848,0-16,7.168-16,16v47.998c0,8.832,7.152,16,16,16c8.848,0,15.999-7.168,15.999-16v-47.998    C399.987,439.154,392.836,431.987,383.988,431.987z" />
	</g>
</g>
<g
   style="fill:#ffffff;fill-opacity:1"
   id="g60">
	<g
   style="fill:#ffffff;fill-opacity:1"
   id="g58">
		<path
   style="fill:#ffffff;fill-opacity:1"
   id="path56"
   d="M319.99,431.987c-8.848,0-16,7.168-16,16v47.998c0,8.832,7.152,16,16,16s16-7.168,16-16v-47.998    C335.99,439.154,328.838,431.987,319.99,431.987z" />
	</g>
</g>
<g
   style="fill:#ffffff;fill-opacity:1"
   id="g66">
	<g
   style="fill:#ffffff;fill-opacity:1"
   id="g64">
		<path
   style="fill:#ffffff;fill-opacity:1"
   id="path62"
   d="M255.992,431.987c-8.848,0-16,7.168-16,16v47.998c0,8.832,7.152,16,16,16s16-7.168,16-16v-47.998    C271.992,439.154,264.84,431.987,255.992,431.987z" />
	</g>
</g>
<g
   style="fill:#ffffff;fill-opacity:1"
   id="g72">
	<g
   style="fill:#ffffff;fill-opacity:1"
   id="g70">
		<path
   style="fill:#ffffff;fill-opacity:1"
   id="path68"
   d="M63.998,303.99H16c-8.848,0-16,7.168-16,16s7.152,16,16,16h47.998c8.848,0,16-7.168,16-16S72.846,303.99,63.998,303.99z" />
	</g>
</g>
<g
   style="fill:#ffffff;fill-opacity:1"
   id="g78">
	<g
   style="fill:#ffffff;fill-opacity:1"
   id="g76">
		<path
   style="fill:#ffffff;fill-opacity:1"
   id="path74"
   d="M63.998,367.989H16c-8.848,0-16,7.168-16,15.999c0,8.832,7.152,16,16,16h47.998c8.848,0,16-7.168,16-16    C79.997,375.156,72.846,367.989,63.998,367.989z" />
	</g>
</g>
<g
   style="fill:#ffffff;fill-opacity:1"
   id="g84">
	<g
   style="fill:#ffffff;fill-opacity:1"
   id="g82">
		<path
   style="fill:#ffffff;fill-opacity:1"
   id="path80"
   d="M63.998,111.997H16c-8.848,0-16,7.168-16,15.999c0,8.832,7.152,16,16,16h47.998c8.848,0,16-7.168,16-16    C79.997,119.164,72.846,111.997,63.998,111.997z" />
	</g>
</g>
<g
   style="fill:#ffffff;fill-opacity:1"
   id="g90">
	<g
   style="fill:#ffffff;fill-opacity:1"
   id="g88">
		<path
   style="fill:#ffffff;fill-opacity:1"
   id="path86"
   d="M63.998,175.995H16c-8.848,0-16,7.168-16,16s7.152,16,16,16h47.998c8.848,0,16-7.168,16-16S72.846,175.995,63.998,175.995    z" />
	</g>
</g>
<g
   style="fill:#ffffff;fill-opacity:1"
   id="g96">
	<g
   style="fill:#ffffff;fill-opacity:1"
   id="g94">
		<path
   style="fill:#ffffff;fill-opacity:1"
   id="path92"
   d="M63.998,239.992H16c-8.848,0-16,7.168-16,16s7.152,16,16,16h47.998c8.848,0,16-7.168,16-16S72.846,239.992,63.998,239.992    z" />
	</g>
</g>
<g
   style="fill:#ffffff;fill-opacity:1"
   id="g102">
	<g
   style="fill:#ffffff;fill-opacity:1"
   id="g100">
		<path
   style="fill:#ffffff;fill-opacity:1"
   id="path98"
   d="M495.984,303.99h-47.998c-8.848,0-16,7.168-16,16s7.152,16,16,16h47.998c8.848,0,16-7.168,16-16    S504.832,303.99,495.984,303.99z" />
	</g>
</g>
<g
   style="fill:#ffffff;fill-opacity:1"
   id="g108">
	<g
   style="fill:#ffffff;fill-opacity:1"
   id="g106">
		<path
   style="fill:#ffffff;fill-opacity:1"
   id="path104"
   d="M495.984,367.989h-47.998c-8.848,0-16,7.168-16,15.999c0,8.832,7.152,16,16,16h47.998c8.848,0,16-7.168,16-16    C511.984,375.156,504.832,367.989,495.984,367.989z" />
	</g>
</g>
<g
   style="fill:#ffffff;fill-opacity:1"
   id="g114">
	<g
   style="fill:#ffffff;fill-opacity:1"
   id="g112">
		<path
   style="fill:#ffffff;fill-opacity:1"
   id="path110"
   d="M495.984,111.997h-47.998c-8.848,0-16,7.168-16,15.999c0,8.832,7.152,16,16,16h47.998c8.848,0,16-7.168,16-16    C511.984,119.164,504.832,111.997,495.984,111.997z" />
	</g>
</g>
<g
   style="fill:#ffffff;fill-opacity:1"
   id="g120">
	<g
   style="fill:#ffffff;fill-opacity:1"
   id="g118">
		<path
   style="fill:#ffffff;fill-opacity:1"
   id="path116"
   d="M495.984,175.995h-47.998c-8.848,0-16,7.168-16,16s7.152,16,16,16h47.998c8.848,0,16-7.168,16-16    S504.832,175.995,495.984,175.995z" />
	</g>
</g>
<g
   style="fill:#ffffff;fill-opacity:1"
   id="g126">
	<g
   style="fill:#ffffff;fill-opacity:1"
   id="g124">
		<path
   style="fill:#ffffff;fill-opacity:1"
   id="path122"
   d="M495.984,239.992h-47.998c-8.848,0-16,7.168-16,16s7.152,16,16,16h47.998c8.848,0,16-7.168,16-16    S504.832,239.992,495.984,239.992z" />
	</g>
</g>
<g
   id="g128">
</g>
<g
   id="g130">
</g>
<g
   id="g132">
</g>
<g
   id="g134">
</g>
<g
   id="g136">
</g>
<g
   id="g138">
</g>
<g
   id="g140">
</g>
<g
   id="g142">
</g>
<g
   id="g144">
</g>
<g
   id="g146">
</g>
<g
   id="g148">
</g>
<g
   id="g150">
</g>
<g
   id="g152">
</g>
<g
   id="g154">
</g>
<g
   id="g156">
</g>
</svg>
