<?xml version="1.0" encoding="UTF-8" standalone="no"?>
<svg
   xmlns:dc="http://purl.org/dc/elements/1.1/"
   xmlns:cc="http://creativecommons.org/ns#"
   xmlns:rdf="http://www.w3.org/1999/02/22-rdf-syntax-ns#"
   xmlns:svg="http://www.w3.org/2000/svg"
   xmlns="http://www.w3.org/2000/svg"
   xmlns:sodipodi="http://sodipodi.sourceforge.net/DTD/sodipodi-0.dtd"
   xmlns:inkscape="http://www.inkscape.org/namespaces/inkscape"
   inkscape:version="1.0 (4035a4fb49, 2020-05-01)"
   sodipodi:docname="PC.svg"
   id="svg10"
   preserveAspectRatio="xMidYMid meet"
   viewBox="0 0 336 764.21936"
   height="764.21936pt"
   width="336pt"
   version="1.0">
  <defs
     id="defs14" />
  <sodipodi:namedview
     inkscape:current-layer="svg10"
     inkscape:window-maximized="0"
     inkscape:window-y="37"
     inkscape:window-x="10"
     inkscape:cy="615.05942"
     inkscape:cx="-434.71485"
     inkscape:zoom="0.31803254"
     fit-margin-bottom="0"
     fit-margin-right="0"
     fit-margin-left="0"
     fit-margin-top="0"
     showgrid="false"
     id="namedview12"
     inkscape:window-height="719"
     inkscape:window-width="1344"
     inkscape:pageshadow="2"
     inkscape:pageopacity="0"
     guidetolerance="10"
     gridtolerance="10"
     objecttolerance="10"
     borderopacity="1"
     bordercolor="#666666"
     pagecolor="#ffffff" />
  <metadata
     id="metadata2">
Created by potrace 1.15, written by Peter Selinger 2001-2017
<rdf:RDF>
  <cc:Work
     rdf:about="">
    <dc:format>image/svg+xml</dc:format>
    <dc:type
       rdf:resource="http://purl.org/dc/dcmitype/StillImage" />
    <dc:title></dc:title>
  </cc:Work>
</rdf:RDF>
</metadata>
  <path
     d="M 18.5,0.61938148 C 11.6,2.7193815 5.5,7.9193815 1.9,14.719381 c -1.8,3.4 -1.9,14.4 -1.9,367.499999 0,353.1 0.1,364.1 1.9,367.5 2.6,4.9 7.4,9.8 12.1,12.3 l 4,2.2 h 150 150 l 4,-2.2 c 4.7,-2.5 9.5,-7.4 12.1,-12.3 1.8,-3.4 1.9,-14.4 1.9,-367.5 C 336,29.119381 335.9,18.119381 334.1,14.719381 331.5,9.8193815 326.7,4.9193815 322,2.4193815 l -4,-2.20000002 -148.5,-0.2 c -81.7,-0.1 -149.6,0.2 -151,0.6 z M 256.9,82.919381 c 0.9,1.2 1.6,3.2 1.6,4.3 0,1.1 -0.7,3.1 -1.6,4.3 l -1.5,2.2 H 161.5 67.6 l -1.5,-2.2 c -0.9,-1.2 -1.6,-3.2 -1.6,-4.3 0,-1.1 0.7,-3.1 1.6,-4.3 l 1.5,-2.2 h 93.9 93.9 z m 0,31.999999 c 2.2,3.1 2,6.4 -0.4,8.8 -2,2 -3.3,2 -95,2 -91.7,0 -93,0 -95,-2 -2.4,-2.4 -2.6,-5.7 -0.4,-8.8 l 1.5,-2.2 h 93.9 93.9 z m -20.3,61 c 5.2,1.5 11.7,7.3 14,12.2 2.2,4.9 2.5,14.3 0.6,18.9 -6.5,15.5 -27.3,19.3 -38.9,7 -6.1,-6.4 -7.8,-17.1 -4.1,-25.3 5,-11 16.8,-16.3 28.4,-12.8 z m 14.7,140 c 0.7,0.7 1.2,2.9 1.2,4.9 0,7.4 7.4,6.9 -96.1,6.9 -91.6,0 -92.9,0 -94.9,-2 -2.2,-2.2 -2.6,-6 -1,-9.1 1,-1.9 3.2,-1.9 95.3,-1.9 72,0 94.6,0.3 95.5,1.2 z m 0,39 c 0.7,0.7 1.2,2.9 1.2,4.9 0,7.4 7.4,6.9 -96.1,6.9 -91.6,0 -92.9,0 -94.9,-2 -2.2,-2.2 -2.6,-6 -1,-9.1 1,-1.9 3.2,-1.9 95.3,-1.9 72,0 94.6,0.3 95.5,1.2 z m 0,39 c 0.7,0.7 1.2,2.9 1.2,4.9 0,7.4 6.4,6.9 -96.7,6.9 -91,0 -92.3,0 -94.3,-2 -2.2,-2.2 -2.6,-6 -1,-9.1 1,-1.9 3.2,-1.9 95.3,-1.9 72,0 94.6,0.3 95.5,1.2 z m 0,39 c 0.7,0.7 1.2,2.9 1.2,4.9 0,7.4 6.4,6.9 -96.7,6.9 -91,0 -92.3,0 -94.3,-2 -2.2,-2.2 -2.6,-6 -1,-9.1 1,-1.9 3.2,-1.9 95.3,-1.9 72,0 94.6,0.3 95.5,1.2 z m 22.2,132.9 c 2.1,1.2 4.7,3.8 5.9,5.9 2,3.7 2.1,4.9 2.1,43.2 0,39.3 0,39.5 -2.2,42.8 -1.3,1.8 -3.6,4.3 -5.1,5.4 -2.7,2 -4.2,2.1 -31.5,2.4 -28.2,0.3 -28.8,0.2 -33.2,-2 -3.3,-1.7 -5.1,-3.5 -6.7,-6.8 -2.3,-4.3 -2.3,-5 -2.3,-41.5 0,-21.1 0.4,-38.5 1,-40.4 0.5,-1.9 2,-4.5 3.2,-5.9 4.5,-4.9 6.3,-5.1 36.7,-5.2 27,0 28.5,0.1 32.1,2.1 z"
     id="path4"
     style="fill:#ffffff;stroke:none;stroke-width:0.1;fill-opacity:1" />
</svg>
