<?xml version="1.0" encoding="UTF-8" standalone="no"?>
<svg
   xmlns:dc="http://purl.org/dc/elements/1.1/"
   xmlns:cc="http://creativecommons.org/ns#"
   xmlns:rdf="http://www.w3.org/1999/02/22-rdf-syntax-ns#"
   xmlns:svg="http://www.w3.org/2000/svg"
   xmlns="http://www.w3.org/2000/svg"
   xmlns:sodipodi="http://sodipodi.sourceforge.net/DTD/sodipodi-0.dtd"
   xmlns:inkscape="http://www.inkscape.org/namespaces/inkscape"
   sodipodi:docname="shell.svg"
   inkscape:version="1.0 (4035a4fb49, 2020-05-01)"
   id="svg844"
   version="1.1"
   viewBox="0 0 100 100"
   height="100mm"
   width="100mm">
  <defs
     id="defs838" />
  <sodipodi:namedview
     inkscape:pagecheckerboard="true"
     inkscape:document-rotation="0"
     inkscape:window-maximized="0"
     inkscape:window-y="27"
     inkscape:window-x="0"
     inkscape:window-height="741"
     inkscape:window-width="1366"
     fit-margin-bottom="0"
     fit-margin-right="0"
     fit-margin-left="0"
     fit-margin-top="0"
     showgrid="false"
     inkscape:current-layer="layer1"
     inkscape:document-units="mm"
     inkscape:cy="177.40675"
     inkscape:cx="240.14555"
     inkscape:zoom="0.51518422"
     inkscape:pageshadow="2"
     inkscape:pageopacity="0.0"
     borderopacity="1.0"
     bordercolor="#666666"
     pagecolor="#ffffff"
     id="base" />
  <metadata
     id="metadata841">
    <rdf:RDF>
      <cc:Work
         rdf:about="">
        <dc:format>image/svg+xml</dc:format>
        <dc:type
           rdf:resource="http://purl.org/dc/dcmitype/StillImage" />
        <dc:title></dc:title>
      </cc:Work>
    </rdf:RDF>
  </metadata>
  <g
     style="opacity:0.99639406"
     transform="translate(0,-197)"
     id="layer1"
     inkscape:groupmode="layer"
     inkscape:label="Calque 1">
    <path
       transform="matrix(0.26458333,0,0,0.26458333,0,197)"
       d="M 75.589844 0 C 33.712678 0 0 33.712678 0 75.589844 L 0 302.36133 C -9.4739031e-15 344.23849 33.712678 377.95312 75.589844 377.95312 L 302.36133 377.95312 C 344.23849 377.95312 377.95312 344.23849 377.95312 302.36133 L 377.95312 75.589844 C 377.95312 33.712678 344.23849 2.3393361e-16 302.36133 0 L 75.589844 0 z M 239.46484 108.01953 L 251.57422 108.01953 L 251.57422 120.8125 C 263.7487 121.39845 273.15625 124.16538 279.79688 129.11328 C 286.43749 133.9961 291.125 141.64582 293.85938 152.0625 L 276.86719 155.28516 C 275.5651 149.16537 272.92839 144.41277 268.95703 141.02734 C 264.98568 137.57681 259.19141 135.49349 251.57422 134.77734 L 251.57422 178.23438 C 263.22787 180.96875 271.49609 183.47525 276.37891 185.75391 C 281.32683 188.03256 285.23307 190.60417 288.09766 193.46875 C 290.96224 196.33333 293.14324 199.71876 294.64062 203.625 C 296.13802 207.53127 296.88672 212.12111 296.88672 217.39453 C 296.88672 228.13673 292.94792 236.763 285.07031 243.27344 C 277.1927 249.78385 266.02735 253.39714 251.57422 254.11328 L 251.57422 269.93359 L 239.46484 269.93359 L 239.46484 254.11328 C 211.73045 252.9414 195.58464 241.25523 191.02734 219.05469 L 207.62891 215.44141 C 209.25651 223.18881 212.64192 229.01563 217.78516 232.92188 C 222.99349 236.82813 230.22005 239.07423 239.46484 239.66016 L 239.46484 191.22266 C 227.9414 188.35808 219.96615 185.78646 215.53906 183.50781 C 211.17708 181.22916 207.62891 178.625 204.89453 175.69531 C 202.22526 172.70052 200.27214 169.51042 199.03516 166.125 C 197.86328 162.7396 197.27734 158.6706 197.27734 153.91797 C 197.27734 143.82683 200.92317 135.94923 208.21484 130.28516 C 215.57162 124.556 225.98827 121.39845 239.46484 120.8125 L 239.46484 108.01953 z M 239.46484 134.58203 C 222.53775 135.4935 214.07422 141.87369 214.07422 153.72266 C 214.07422 157.56379 214.88803 160.819 216.51562 163.48828 C 218.14323 166.15756 220.55208 168.40365 223.74219 170.22656 C 226.9974 172.04948 232.23828 173.8724 239.46484 175.69531 L 239.46484 134.58203 z M 106.75 177.25781 C 110.13542 177.25781 113.87891 177.68098 117.98047 178.52734 C 122.14714 179.37371 128.46223 181.29429 136.92578 184.28906 C 138.94401 185.07032 141.90625 186.01432 145.8125 187.12109 C 149.71875 188.16276 153.13672 188.68359 156.06641 188.68359 C 164.52995 188.68359 172.47265 185.68879 179.89453 179.69922 L 179.89453 194.25 C 176.11849 196.98439 172.3099 198.97004 168.46875 200.20703 C 164.69271 201.444 160.03776 202.0625 154.50391 202.0625 C 150.01172 202.0625 145.38933 201.34635 140.63672 199.91406 C 135.94922 198.48177 131.22917 196.91926 126.47656 195.22656 C 118.07812 192.29687 111.01433 190.83203 105.28516 190.83203 C 100.92318 190.83203 96.85417 191.51563 93.078125 192.88281 C 89.302082 194.18488 85.298179 196.36588 81.066406 199.42578 L 81.066406 185.46094 C 88.292971 179.99219 96.854159 177.25781 106.75 177.25781 z M 251.57422 194.05469 L 251.57422 239.75781 C 260.75391 239.17188 267.78515 236.99089 272.66797 233.21484 C 277.61589 229.43879 280.08984 224.23047 280.08984 217.58984 C 280.08984 213.35808 279.24349 209.87501 277.55078 207.14062 C 275.85807 204.40625 273.41667 202.16015 270.22656 200.40234 C 267.03646 198.57943 260.81902 196.46353 251.57422 194.05469 z "
       style="fill:#ffffff;stroke-width:3.26929;paint-order:stroke fill markers"
       id="rect831" />
  </g>
</svg>
