<?xml version="1.0" encoding="UTF-8" standalone="no"?>
<svg
   xmlns:dc="http://purl.org/dc/elements/1.1/"
   xmlns:cc="http://creativecommons.org/ns#"
   xmlns:rdf="http://www.w3.org/1999/02/22-rdf-syntax-ns#"
   xmlns:svg="http://www.w3.org/2000/svg"
   xmlns="http://www.w3.org/2000/svg"
   xmlns:sodipodi="http://sodipodi.sourceforge.net/DTD/sodipodi-0.dtd"
   xmlns:inkscape="http://www.inkscape.org/namespaces/inkscape"
   height="921.09998"
   width="980"
   version="1.1"
   x="0px"
   y="0px"
   viewBox="0 0 980 921.09998"
   enable-background="new 0 0 1000 1000"
   xml:space="preserve"
   id="svg8"
   sodipodi:docname="statistics.svg"
   inkscape:version="1.0 (4035a4fb49, 2020-05-01)"><defs
   id="defs12" /><sodipodi:namedview
   fit-margin-bottom="0"
   fit-margin-right="0"
   fit-margin-left="0"
   fit-margin-top="0"
   inkscape:document-rotation="0"
   pagecolor="#ffffff"
   bordercolor="#666666"
   borderopacity="1"
   objecttolerance="10"
   gridtolerance="10"
   guidetolerance="10"
   inkscape:pageopacity="0"
   inkscape:pageshadow="2"
   inkscape:window-width="803"
   inkscape:window-height="719"
   id="namedview10"
   showgrid="false"
   inkscape:zoom="0.2935"
   inkscape:cx="87.336676"
   inkscape:cy="293.30039"
   inkscape:window-x="551"
   inkscape:window-y="37"
   inkscape:window-maximized="0"
   inkscape:current-layer="svg8" />
<metadata
   id="metadata2"> Svg Vector Icons : http://www.onlinewebfonts.com/icon <rdf:RDF><cc:Work
     rdf:about=""><dc:format>image/svg+xml</dc:format><dc:type
       rdf:resource="http://purl.org/dc/dcmitype/StillImage" /><dc:title></dc:title></cc:Work></rdf:RDF></metadata>
<g
   style="fill:#ffffff;fill-opacity:1"
   transform="translate(-10.1,-39.5)"
   id="g6"><path
     style="fill:#ffffff;fill-opacity:1"
     d="m 285.6,851.3 v -509 c 0,-20.3 -15.3,-35.9 -33.7,-35.9 h -101 c -18.4,0 -33.7,17.2 -33.7,35.9 v 508.9 h 168.4 z m 214.4,0 V 123.8 C 500,103.5 484.7,86.3 466.3,86.3 H 365.2 c -18.4,0 -33.7,17.2 -33.7,37.5 v 727.5 z m 214.4,0 V 529.7 c 0,-20.3 -15.3,-37.5 -33.7,-37.5 H 579.6 c -18.4,0 -33.7,17.2 -33.7,37.5 v 321.6 z m 214.3,0 v -509 C 928.7,322 913.4,306.4 895,306.4 H 794 c -18.4,0 -33.7,17.2 -33.7,35.9 v 508.9 h 168.4 z m 30.7,46.8 H 71.3 V 70.7 c 0,-17.2 -13.8,-31.2 -30.6,-31.2 -16.8,0 -30.6,14 -30.6,31.2 v 889.9 h 949.4 c 16.8,0 30.6,-14 30.6,-31.2 0,-17.2 -13.9,-31.3 -30.7,-31.3 z"
     id="path4" /></g>
</svg>
