<?xml version="1.0" encoding="UTF-8" standalone="no"?>
<svg
   xmlns:dc="http://purl.org/dc/elements/1.1/"
   xmlns:cc="http://creativecommons.org/ns#"
   xmlns:rdf="http://www.w3.org/1999/02/22-rdf-syntax-ns#"
   xmlns:svg="http://www.w3.org/2000/svg"
   xmlns="http://www.w3.org/2000/svg"
   xmlns:sodipodi="http://sodipodi.sourceforge.net/DTD/sodipodi-0.dtd"
   xmlns:inkscape="http://www.inkscape.org/namespaces/inkscape"
   inkscape:version="1.0 (4035a4fb49, 2020-05-01)"
   sodipodi:docname="debate.svg"
   xml:space="preserve"
   style="enable-background:new 0 0 203.305 203.305;"
   viewBox="0 0 203.305 203.305"
   y="0px"
   x="0px"
   id="Capa_1"
   version="1.1"><metadata
   id="metadata49"><rdf:RDF><cc:Work
       rdf:about=""><dc:format>image/svg+xml</dc:format><dc:type
         rdf:resource="http://purl.org/dc/dcmitype/StillImage" /><dc:title></dc:title></cc:Work></rdf:RDF></metadata><defs
   id="defs47">
	
	
	
	
	
</defs><sodipodi:namedview
   inkscape:current-layer="Capa_1"
   inkscape:window-maximized="0"
   inkscape:window-y="27"
   inkscape:window-x="0"
   inkscape:cy="52.144506"
   inkscape:cx="-23.132617"
   inkscape:zoom="1"
   showgrid="false"
   id="namedview45"
   inkscape:window-height="739"
   inkscape:window-width="1364"
   inkscape:pageshadow="2"
   inkscape:pageopacity="0"
   guidetolerance="10"
   gridtolerance="10"
   objecttolerance="10"
   borderopacity="1"
   bordercolor="#666666"
   pagecolor="#ffffff" />
<path
   sodipodi:nodetypes="ssscs"
   style="fill:#ffffff;fill-opacity:1"
   d="m 42.528,83.982 c 17.265,0 31.31,-14.045 31.31,-31.31 0,-17.266 -14.046,-31.314 -31.31,-31.314 -17.264,0 -31.31,14.047 -31.31,31.314 10e-4,17.265 14.046,31.31 31.31,31.31 z"
   id="path2" /><path
   style="fill:#ffffff;fill-opacity:1"
   d="m 84.776307,174.97323 c 0,0 4.4e-4,-27.66614 4.4e-4,-51.80475 0,-14.4007 -13.703,-30.551001 -30.546,-30.551001 h -24.157 c -16.844,0 -30.54699953,13.705001 -30.54699953,30.551001 v 51.808"
   id="path4"
   sodipodi:nodetypes="cssssc" /><path
   style="fill:#ffffff;fill-opacity:1"
   sodipodi:nodetypes="sssss"
   d="m 160.584,83.982 c 17.265,0 31.311,-14.045 31.311,-31.31 0,-17.266 -14.046,-31.314 -31.311,-31.314 -17.265,0 -31.311,14.047 -31.311,31.314 0,17.265 14.046,31.31 31.311,31.31 z"
   id="path6" /><path
   style="fill:#ffffff;fill-opacity:1"
   d="m 118.733,66.968 c -3.706,-1.854 -8.211,-0.351 -10.063,3.354 L 101.4,84.86 94.632,71.325 C 92.78,67.62 88.275,66.117 84.57,67.971 c -3.705,1.852 -5.207,6.357 -3.354,10.062 l 13.476,26.951 c 1.27,2.541 3.867,4.146 6.708,4.146 2.841,0 5.437,-1.605 6.708,-4.146 L 122.086,77.03 c 1.853,-3.705 0.352,-8.21 -3.353,-10.062 z"
   id="path10" />
<g
   style="fill:#ffffff;fill-opacity:1"
   id="g14">
</g>
<g
   style="fill:#ffffff;fill-opacity:1"
   id="g16">
</g>
<g
   style="fill:#ffffff;fill-opacity:1"
   id="g18">
</g>
<g
   style="fill:#ffffff;fill-opacity:1"
   id="g20">
</g>
<g
   style="fill:#ffffff;fill-opacity:1"
   id="g22">
</g>
<g
   style="fill:#ffffff;fill-opacity:1"
   id="g24">
</g>
<g
   style="fill:#ffffff;fill-opacity:1"
   id="g26">
</g>
<g
   style="fill:#ffffff;fill-opacity:1"
   id="g28">
</g>
<g
   style="fill:#ffffff;fill-opacity:1"
   id="g30">
</g>
<g
   style="fill:#ffffff;fill-opacity:1"
   id="g32">
</g>
<g
   style="fill:#ffffff;fill-opacity:1"
   id="g34">
</g>
<g
   style="fill:#ffffff;fill-opacity:1"
   id="g36">
</g>
<g
   style="fill:#ffffff;fill-opacity:1"
   id="g38">
</g>
<g
   style="fill:#ffffff;fill-opacity:1"
   id="g40">
</g>
<g
   style="fill:#ffffff;fill-opacity:1"
   id="g42">
</g>
<path
   style="fill:#ffffff;fill-opacity:1;stroke:none;stroke-opacity:1"
   sodipodi:nodetypes="cssssc"
   id="path902"
   d="m 203.30756,174.97323 c 0,0 4.4e-4,-27.66614 4.4e-4,-51.80475 0,-14.4007 -13.703,-30.551001 -30.546,-30.551001 h -24.157 c -16.844,0 -30.547,13.705001 -30.547,30.551001 v 51.808" /></svg>
