<?xml version="1.0" encoding="UTF-8" standalone="no"?>
<svg
   xmlns:dc="http://purl.org/dc/elements/1.1/"
   xmlns:cc="http://creativecommons.org/ns#"
   xmlns:rdf="http://www.w3.org/1999/02/22-rdf-syntax-ns#"
   xmlns:svg="http://www.w3.org/2000/svg"
   xmlns="http://www.w3.org/2000/svg"
   xmlns:sodipodi="http://sodipodi.sourceforge.net/DTD/sodipodi-0.dtd"
   xmlns:inkscape="http://www.inkscape.org/namespaces/inkscape"
   inkscape:version="1.0 (4035a4fb49, 2020-05-01)"
   sodipodi:docname="euro.svg"
   xml:space="preserve"
   style="enable-background:new 0 0 512 512;"
   viewBox="0 0 512 512"
   y="0px"
   x="0px"
   id="Layer_1"
   version="1.1"><metadata
   id="metadata43"><rdf:RDF><cc:Work
       rdf:about=""><dc:format>image/svg+xml</dc:format><dc:type
         rdf:resource="http://purl.org/dc/dcmitype/StillImage" /><dc:title></dc:title></cc:Work></rdf:RDF></metadata><defs
   id="defs41" /><sodipodi:namedview
   inkscape:current-layer="Layer_1"
   inkscape:window-maximized="0"
   inkscape:window-y="37"
   inkscape:window-x="10"
   inkscape:cy="256"
   inkscape:cx="102.05111"
   inkscape:zoom="1.1464844"
   showgrid="false"
   id="namedview39"
   inkscape:window-height="719"
   inkscape:window-width="1344"
   inkscape:pageshadow="2"
   inkscape:pageopacity="0"
   guidetolerance="10"
   gridtolerance="10"
   objecttolerance="10"
   borderopacity="1"
   bordercolor="#666666"
   pagecolor="#ffffff" />
<g
   style="fill:#ffffff;fill-opacity:1"
   id="g6">
	<g
   style="fill:#ffffff;fill-opacity:1"
   id="g4">
		<path
   style="fill:#ffffff;fill-opacity:1"
   id="path2"
   d="M256.012,0c-141.156,0-256,114.844-256,256s114.844,256,256,256c141.148,0,255.976-114.844,255.976-256    S397.16,0,256.012,0z M351.324,391.5c-23.724,13.772-50.784,20.776-78.256,20.776C205.9,412.276,145.248,368,124.532,304h-20.06    c-11.028,0-19.996-8.976-19.996-20c0-11.028,8.968-20,19.996-20h12.688c-0.164-4-0.244-5.444-0.244-8c0-2.556,0.08-4,0.244-8    h-12.688c-11.028,0-19.996-8.976-19.996-20c0-11.028,8.968-20,19.996-20h20.06c20.716-64,81.368-107.876,148.532-107.876    c27.472,0,54.536,7.352,78.256,21.108c9.528,5.54,12.784,17.832,7.252,27.372c-3.568,6.136-10.2,9.976-17.316,9.976    c-3.496,0-6.956-0.928-10.004-2.688c-17.644-10.232-37.756-15.78-58.192-15.78c-45.916,0-86.768,27.888-105.668,67.888h93.22    c11.02,0,19.996,8.972,19.996,20c0,11.024-8.976,20-19.996,20H157.188c-0.188,4-0.28,5.304-0.28,8s0.092,4,0.28,8h103.424    c11.02,0,19.996,8.972,19.996,20c0,11.024-8.976,20-19.996,20h-93.22c18.904,40,59.752,68.292,105.672,68.292    c20.432,0,40.548-5.26,58.184-15.496c3.048-1.772,6.516-2.64,10.02-2.64c7.108,0,13.744,3.848,17.308,9.996    C364.108,373.688,360.848,385.972,351.324,391.5z" />
	</g>
</g>
<g
   id="g8">
</g>
<g
   id="g10">
</g>
<g
   id="g12">
</g>
<g
   id="g14">
</g>
<g
   id="g16">
</g>
<g
   id="g18">
</g>
<g
   id="g20">
</g>
<g
   id="g22">
</g>
<g
   id="g24">
</g>
<g
   id="g26">
</g>
<g
   id="g28">
</g>
<g
   id="g30">
</g>
<g
   id="g32">
</g>
<g
   id="g34">
</g>
<g
   id="g36">
</g>
</svg>
