<?xml version="1.0" encoding="UTF-8" standalone="no"?>
<svg
   xmlns:dc="http://purl.org/dc/elements/1.1/"
   xmlns:cc="http://creativecommons.org/ns#"
   xmlns:rdf="http://www.w3.org/1999/02/22-rdf-syntax-ns#"
   xmlns:svg="http://www.w3.org/2000/svg"
   xmlns="http://www.w3.org/2000/svg"
   xmlns:sodipodi="http://sodipodi.sourceforge.net/DTD/sodipodi-0.dtd"
   xmlns:inkscape="http://www.inkscape.org/namespaces/inkscape"
   sodipodi:docname="javascript.svg"
   inkscape:version="1.0 (4035a4fb49, 2020-05-01)"
   id="svg844"
   version="1.1"
   viewBox="0 0 100.0001 100.0001"
   height="100.0001mm"
   width="100.0001mm">
  <defs
     id="defs838" />
  <sodipodi:namedview
     inkscape:pagecheckerboard="true"
     inkscape:document-rotation="0"
     inkscape:window-maximized="0"
     inkscape:window-y="323"
     inkscape:window-x="0"
     inkscape:window-height="445"
     inkscape:window-width="1366"
     fit-margin-bottom="0"
     fit-margin-right="0"
     fit-margin-left="0"
     fit-margin-top="0"
     showgrid="false"
     inkscape:current-layer="layer1"
     inkscape:document-units="mm"
     inkscape:cy="167.22569"
     inkscape:cx="-61.932078"
     inkscape:zoom="0.74830636"
     inkscape:pageshadow="2"
     inkscape:pageopacity="0.0"
     borderopacity="1.0"
     bordercolor="#666666"
     pagecolor="#ffffff"
     id="base" />
  <metadata
     id="metadata841">
    <rdf:RDF>
      <cc:Work
         rdf:about="">
        <dc:format>image/svg+xml</dc:format>
        <dc:type
           rdf:resource="http://purl.org/dc/dcmitype/StillImage" />
        <dc:title></dc:title>
      </cc:Work>
    </rdf:RDF>
  </metadata>
  <g
     transform="translate(-68.649502,-222.39538)"
     id="layer1"
     inkscape:groupmode="layer"
     inkscape:label="Calque 1">
    <path
       transform="matrix(0.26458333,0,0,0.26458333,68.649502,222.39538)"
       d="M 188.97656 0 C 84.607649 -0.00011338583 -0.00010204724 84.60763 0 188.97656 C -0.00010204724 293.34546 84.607649 377.9532 188.97656 377.95312 C 293.34546 377.9532 377.9532 293.34546 377.95312 188.97656 C 377.9532 84.60763 293.34546 -0.00011338583 188.97656 0 z M 215.20117 141.77539 C 225.61783 141.77539 233.58161 143.38196 239.09375 146.59375 C 244.60589 149.76215 248.4681 155.18687 250.68164 162.86914 L 238.44336 165.01758 C 237.0979 160.15648 234.53582 156.64083 230.75977 154.4707 C 226.98374 152.25716 221.75433 151.15039 215.07031 151.15039 C 207.73526 151.15039 202.13627 152.36631 198.27344 154.79688 C 194.41058 157.2274 192.47852 160.85221 192.47852 165.66992 C 192.47852 168.49109 193.21766 170.83487 194.69336 172.70117 C 196.21245 174.52409 198.38197 176.08657 201.20312 177.38867 C 204.02432 178.64733 209.64435 180.20984 218.06445 182.07617 C 220.88564 182.72721 223.68514 183.3993 226.46289 184.09375 C 229.28408 184.74479 231.97635 185.54709 234.53711 186.50195 C 237.09787 187.4134 239.48372 188.49913 241.69727 189.75781 C 243.9542 191.0165 245.90733 192.55797 247.55664 194.38086 C 249.20593 196.20378 250.48697 198.35222 251.39844 200.82617 C 252.3533 203.30012 252.83008 206.20682 252.83008 209.54883 C 252.83008 218.01235 249.50977 224.56686 242.86914 229.21094 C 236.27195 233.85504 226.962 236.17773 214.93945 236.17773 C 192.58708 236.17773 179.6313 228.40731 176.07227 212.86914 L 188.11719 210.46094 C 189.50606 215.97308 192.45681 220.0306 196.9707 222.63477 C 201.48459 225.19552 207.62741 226.47656 215.39648 226.47656 C 223.42599 226.47656 229.61091 225.10939 233.95117 222.375 C 238.33484 219.59725 240.52539 215.5397 240.52539 210.20117 C 240.52539 207.20638 239.83226 204.77451 238.44336 202.9082 C 237.0979 201.04187 235.18684 199.50238 232.71289 198.28711 C 230.23894 197.07184 227.28818 196.05121 223.85938 195.22656 C 220.43056 194.40189 216.63347 193.5115 212.4668 192.55664 C 205.21857 190.95074 199.70574 189.34613 195.92969 187.74023 C 192.19708 186.13434 189.24633 184.35352 187.07617 182.40039 C 184.90604 180.40387 183.23438 178.08311 182.0625 175.43555 C 180.93403 172.78799 180.36914 169.74913 180.36914 166.32031 C 180.36914 158.46444 183.36395 152.40973 189.35352 148.15625 C 195.3865 143.90279 204.00329 141.77539 215.20117 141.77539 z M 145.10938 143.14258 L 175.12305 143.14258 L 175.12305 207.53125 C 175.12305 216.42881 172.71417 223.43904 167.89648 228.56055 C 163.07877 233.63867 156.48023 236.17773 148.10352 236.17773 C 132.56537 236.17773 123.34354 228.1469 120.43555 212.08789 L 132.60938 210.07031 C 133.39062 215.10502 135.14845 219.03235 137.88281 221.85352 C 140.61717 224.67468 144.04666 226.08594 148.16992 226.08594 C 152.68381 226.08594 156.24156 224.54447 158.8457 221.46289 C 161.44987 218.3379 162.75195 213.78058 162.75195 207.79102 L 162.75195 153.29883 L 145.10938 153.29883 L 145.10938 143.14258 z "
       style="fill:#ffffff;fill-opacity:1;stroke-width:3.41049;stroke-miterlimit:4;stroke-dasharray:none"
       id="path1389" />
  </g>
</svg>
