<?xml version="1.0" encoding="UTF-8" standalone="no"?>
<svg
   xmlns:dc="http://purl.org/dc/elements/1.1/"
   xmlns:cc="http://creativecommons.org/ns#"
   xmlns:rdf="http://www.w3.org/1999/02/22-rdf-syntax-ns#"
   xmlns:svg="http://www.w3.org/2000/svg"
   xmlns="http://www.w3.org/2000/svg"
   xmlns:sodipodi="http://sodipodi.sourceforge.net/DTD/sodipodi-0.dtd"
   xmlns:inkscape="http://www.inkscape.org/namespaces/inkscape"
   inkscape:version="1.0 (4035a4fb49, 2020-05-01)"
   sodipodi:docname="mac.svg"
   id="svg4"
   viewBox="0 0 42 42"
   version="1.1">
  <metadata
     id="metadata10">
    <rdf:RDF>
      <cc:Work
         rdf:about="">
        <dc:format>image/svg+xml</dc:format>
        <dc:type
           rdf:resource="http://purl.org/dc/dcmitype/StillImage" />
      </cc:Work>
    </rdf:RDF>
  </metadata>
  <defs
     id="defs8" />
  <sodipodi:namedview
     inkscape:current-layer="svg4"
     inkscape:window-maximized="0"
     inkscape:window-y="37"
     inkscape:window-x="688"
     inkscape:cy="31.124501"
     inkscape:cx="8.7726703"
     inkscape:zoom="9.4053163"
     showgrid="false"
     id="namedview6"
     inkscape:window-height="721"
     inkscape:window-width="668"
     inkscape:pageshadow="2"
     inkscape:pageopacity="0"
     guidetolerance="10"
     gridtolerance="10"
     objecttolerance="10"
     borderopacity="1"
     bordercolor="#666666"
     pagecolor="#ffffff" />
  <path
     style="fill:#ffffff;fill-opacity:1"
     d="M 21 0.25 C 9.421 0.25 0.25 9.421 0.25 21 C 0.25 32.58 9.421 41.75 21 41.75 C 32.579 41.75 41.75 32.58 41.75 21 C 41.75 9.421 32.58 0.25 21 0.25 z M 22.195312 11.230469 C 22.461312 11.230469 22.703922 11.262078 22.919922 11.330078 C 23.135922 11.398078 23.319656 11.494141 23.472656 11.619141 C 23.625656 11.744141 23.743172 11.894312 23.826172 12.070312 C 23.909172 12.246313 23.951172 12.443156 23.951172 12.660156 L 23.951172 15.660156 L 23.119141 15.660156 L 23.119141 14.931641 L 23.097656 14.931641 C 23.035656 15.049641 22.958281 15.156953 22.863281 15.251953 C 22.767281 15.346953 22.660016 15.429094 22.541016 15.496094 C 22.421016 15.563094 22.291391 15.614391 22.150391 15.650391 C 22.009391 15.686391 21.864797 15.705078 21.716797 15.705078 C 21.498797 15.705078 21.300141 15.673328 21.119141 15.611328 C 20.937141 15.549328 20.782344 15.462609 20.652344 15.349609 C 20.522344 15.236609 20.419656 15.101406 20.347656 14.941406 C 20.274656 14.781406 20.238281 14.60225 20.238281 14.40625 C 20.238281 14.02225 20.381969 13.723813 20.667969 13.507812 C 20.953969 13.291812 21.367156 13.165859 21.910156 13.130859 L 23.091797 13.0625 L 23.091797 12.724609 C 23.091797 12.472609 23.011563 12.279437 22.851562 12.148438 C 22.691562 12.017437 22.464875 11.951172 22.171875 11.951172 C 22.053875 11.951172 21.943797 11.965141 21.841797 11.994141 C 21.739797 12.024141 21.648313 12.066094 21.570312 12.121094 C 21.492313 12.176094 21.428906 12.243313 21.378906 12.320312 C 21.327906 12.396313 21.292438 12.482172 21.273438 12.576172 L 20.455078 12.576172 C 20.460078 12.383172 20.507656 12.203063 20.597656 12.039062 C 20.687656 11.875063 20.809844 11.734281 20.964844 11.613281 C 21.119844 11.492281 21.301719 11.397078 21.511719 11.330078 C 21.721719 11.263078 21.948313 11.230469 22.195312 11.230469 z M 26.931641 11.230469 C 27.210641 11.230469 27.461547 11.272469 27.685547 11.355469 C 27.910547 11.438469 28.102672 11.550406 28.263672 11.691406 C 28.424672 11.832406 28.552484 11.995594 28.646484 12.183594 C 28.740484 12.371594 28.797406 12.570297 28.816406 12.779297 L 27.982422 12.779297 C 27.961422 12.664297 27.923141 12.556031 27.869141 12.457031 C 27.815141 12.358031 27.74425 12.272219 27.65625 12.199219 C 27.56725 12.126219 27.464703 12.070297 27.345703 12.029297 C 27.225703 11.987297 27.090453 11.966797 26.939453 11.966797 C 26.762453 11.966797 26.601984 12.003219 26.458984 12.074219 C 26.314984 12.145219 26.191844 12.246953 26.089844 12.376953 C 25.987844 12.506953 25.909516 12.665563 25.853516 12.851562 C 25.796516 13.038562 25.767578 13.244656 25.767578 13.472656 C 25.767578 13.708656 25.796516 13.921422 25.853516 14.107422 C 25.909516 14.294422 25.98975 14.451078 26.09375 14.580078 C 26.19675 14.709078 26.321797 14.808953 26.466797 14.876953 C 26.611797 14.944953 26.771313 14.978516 26.945312 14.978516 C 27.230313 14.978516 27.462578 14.911344 27.642578 14.777344 C 27.822578 14.643344 27.938187 14.447453 27.992188 14.189453 L 28.826172 14.189453 C 28.802172 14.417453 28.738719 14.626453 28.636719 14.814453 C 28.534719 15.002453 28.402234 15.161922 28.240234 15.294922 C 28.077234 15.427922 27.887969 15.531516 27.667969 15.603516 C 27.447969 15.675516 27.204406 15.712891 26.941406 15.712891 C 26.629406 15.712891 26.348703 15.659641 26.095703 15.556641 C 25.843703 15.453641 25.627266 15.304328 25.447266 15.111328 C 25.267266 14.918328 25.127297 14.68325 25.029297 14.40625 C 24.931297 14.12925 24.882812 13.819656 24.882812 13.472656 C 24.880813 13.133656 24.929344 12.824828 25.027344 12.548828 C 25.125344 12.273828 25.264359 12.037797 25.443359 11.841797 C 25.622359 11.645797 25.837844 11.494672 26.089844 11.388672 C 26.341844 11.282672 26.622641 11.230469 26.931641 11.230469 z M 15.269531 11.238281 C 15.575531 11.238281 15.834922 11.311031 16.044922 11.457031 C 16.255922 11.603031 16.406141 11.813891 16.494141 12.087891 L 16.515625 12.087891 C 16.571625 11.955891 16.645328 11.838375 16.736328 11.734375 C 16.827328 11.630375 16.932781 11.540797 17.050781 11.466797 C 17.168781 11.392797 17.298453 11.335875 17.439453 11.296875 C 17.580453 11.257875 17.728766 11.238281 17.884766 11.238281 C 18.099766 11.238281 18.294703 11.272797 18.470703 11.341797 C 18.646703 11.410797 18.796875 11.507812 18.921875 11.632812 C 19.046875 11.757812 19.141984 11.909891 19.208984 12.087891 C 19.275984 12.265891 19.310547 12.463641 19.310547 12.681641 L 19.310547 15.662109 L 18.439453 15.662109 L 18.439453 12.890625 C 18.439453 12.603625 18.36675 12.379656 18.21875 12.222656 C 18.07175 12.065656 17.859938 11.986328 17.585938 11.986328 C 17.451937 11.986328 17.328797 12.011594 17.216797 12.058594 C 17.105797 12.105594 17.009688 12.170859 16.929688 12.255859 C 16.848688 12.339859 16.785234 12.442547 16.740234 12.560547 C 16.694234 12.678547 16.671875 12.807266 16.671875 12.947266 L 16.671875 15.662109 L 15.8125 15.662109 L 15.8125 12.818359 C 15.8125 12.692359 15.792906 12.578562 15.753906 12.476562 C 15.714906 12.374562 15.660891 12.287844 15.587891 12.214844 C 15.515891 12.141844 15.425266 12.085875 15.322266 12.046875 C 15.218266 12.007875 15.103609 11.988281 14.974609 11.988281 C 14.840609 11.988281 14.716563 12.0125 14.601562 12.0625 C 14.487562 12.1125 14.388641 12.181531 14.306641 12.269531 C 14.224641 12.358531 14.160234 12.462984 14.115234 12.583984 C 14.071234 12.703984 14 12.836516 14 12.978516 L 14 15.660156 L 13.175781 15.660156 L 13.175781 11.287109 L 14.009766 11.287109 L 14.009766 12.027344 L 14.025391 12.027344 C 14.076391 11.904344 14.142609 11.793266 14.224609 11.697266 C 14.306609 11.600266 14.401766 11.518219 14.509766 11.449219 C 14.616766 11.380219 14.735281 11.328969 14.863281 11.292969 C 14.992281 11.256969 15.127531 11.238281 15.269531 11.238281 z M 23.091797 13.675781 L 22.027344 13.748047 C 21.726344 13.767047 21.501609 13.831453 21.349609 13.939453 C 21.197609 14.048453 21.121094 14.199578 21.121094 14.392578 C 21.121094 14.580578 21.196656 14.730797 21.347656 14.841797 C 21.497656 14.953797 21.699172 15.009766 21.951172 15.009766 C 22.112172 15.009766 22.263344 14.984547 22.402344 14.935547 C 22.541344 14.886547 22.663625 14.816516 22.765625 14.728516 C 22.867625 14.641516 22.946906 14.538969 23.003906 14.417969 C 23.061906 14.296969 23.091797 14.162578 23.091797 14.017578 L 23.091797 13.675781 z M 15.068359 18.417969 C 18.893359 18.417969 21.283203 21.084172 21.283203 25.326172 C 21.283203 29.567172 18.893359 32.226563 15.068359 32.226562 C 11.243359 32.226562 8.84375 29.568172 8.84375 25.326172 C 8.84375 21.084172 11.243359 18.417969 15.068359 18.417969 z M 27.783203 18.417969 C 30.543203 18.417969 32.470922 20.001297 32.544922 22.279297 L 30.664062 22.279297 C 30.534063 20.908297 29.414094 20.064453 27.746094 20.064453 C 26.088094 20.064453 24.939453 20.916437 24.939453 22.148438 C 24.939453 23.120438 25.661875 23.696625 27.421875 24.140625 L 28.867188 24.501953 C 31.618188 25.168953 32.748047 26.252266 32.748047 28.197266 C 32.747047 30.679266 30.783344 32.226563 27.652344 32.226562 C 24.735344 32.226562 22.753234 30.697828 22.615234 28.298828 L 24.513672 28.298828 C 24.661672 29.669828 25.987734 30.578125 27.802734 30.578125 C 29.543734 30.578125 30.794922 29.670687 30.794922 28.429688 C 30.794922 27.355687 30.034391 26.705719 28.275391 26.261719 L 26.560547 25.835938 C 24.096547 25.224937 22.976562 24.104719 22.976562 22.261719 C 22.976562 19.992719 24.958203 18.417969 27.783203 18.417969 z M 15.068359 20.119141 C 12.447359 20.119141 10.808594 22.129219 10.808594 25.324219 C 10.808594 28.510219 12.447359 30.521484 15.068359 30.521484 C 17.680359 30.521484 19.328125 28.510219 19.328125 25.324219 C 19.329125 22.129219 17.680359 20.119141 15.068359 20.119141 z "
     id="path2" />
</svg>
