<?xml version="1.0" encoding="UTF-8" standalone="no"?>
<svg
   xmlns:dc="http://purl.org/dc/elements/1.1/"
   xmlns:cc="http://creativecommons.org/ns#"
   xmlns:rdf="http://www.w3.org/1999/02/22-rdf-syntax-ns#"
   xmlns:svg="http://www.w3.org/2000/svg"
   xmlns="http://www.w3.org/2000/svg"
   xmlns:sodipodi="http://sodipodi.sourceforge.net/DTD/sodipodi-0.dtd"
   xmlns:inkscape="http://www.inkscape.org/namespaces/inkscape"
   sodipodi:docname="question.svg"
   inkscape:version="1.0 (4035a4fb49, 2020-05-01)"
   id="svg837"
   version="1.1"
   viewBox="0 0 97.372307 97.372307"
   height="97.372307mm"
   width="97.372307mm">
  <defs
     id="defs831" />
  <sodipodi:namedview
     fit-margin-bottom="0"
     fit-margin-right="0"
     fit-margin-left="0"
     fit-margin-top="0"
     inkscape:window-maximized="1"
     inkscape:window-y="37"
     inkscape:window-x="10"
     inkscape:window-height="719"
     inkscape:window-width="1344"
     showgrid="false"
     inkscape:document-rotation="0"
     inkscape:current-layer="layer1"
     inkscape:document-units="mm"
     inkscape:cy="210.69185"
     inkscape:cx="106.23642"
     inkscape:zoom="0.49497475"
     inkscape:pageshadow="2"
     inkscape:pageopacity="0.0"
     borderopacity="1.0"
     bordercolor="#666666"
     pagecolor="#ffffff"
     id="base" />
  <metadata
     id="metadata834">
    <rdf:RDF>
      <cc:Work
         rdf:about="">
        <dc:format>image/svg+xml</dc:format>
        <dc:type
           rdf:resource="http://purl.org/dc/dcmitype/StillImage" />
        <dc:title></dc:title>
      </cc:Work>
    </rdf:RDF>
  </metadata>
  <g
     transform="translate(-37.458332,-63.884409)"
     id="layer1"
     inkscape:groupmode="layer"
     inkscape:label="Calque 1">
    <path
       transform="matrix(0.26458333,0,0,0.26458333,37.458332,63.884409)"
       d="M 184.00977 0 C 174.34857 -6.6813239e-08 164.68806 3.700609 157.28516 11.103516 L 11.103516 157.28516 C -3.7022982 172.09097 -3.7022982 195.93051 11.103516 210.73633 L 157.28516 356.91602 C 172.09097 371.72183 195.93051 371.72183 210.73633 356.91602 L 356.91602 210.73633 C 371.72183 195.93051 371.72183 172.09097 356.91602 157.28516 L 210.73633 11.103516 C 203.33342 3.7006087 193.67096 6.6813239e-08 184.00977 0 z M 184.27734 88.810547 C 215.74403 88.810547 236.54492 106.14399 236.54492 132.27734 C 236.54492 170.14402 193.61133 181.34347 193.61133 210.41016 L 193.61133 224.54492 L 173.34375 224.54492 L 173.34375 210.41016 C 173.34375 172.2768 213.87695 162.67776 213.87695 134.67773 C 213.87695 118.67772 200.81108 108.27734 178.67773 108.27734 C 165.34439 108.27734 150.94493 112.01093 136.54492 119.21094 L 131.47656 102.94336 C 147.2099 94.143357 166.67733 88.810547 184.27734 88.810547 z M 183.74414 245.07812 C 193.87748 245.07812 200.81055 252.27785 200.81055 262.14453 C 200.81055 272.01118 193.87748 279.21094 183.74414 279.21094 C 173.6108 279.21094 166.67773 272.01118 166.67773 262.14453 C 166.67773 252.27785 173.6108 245.07812 183.74414 245.07812 z "
       style="fill:#fdfdfd;fill-opacity:1;stroke-width:43.2049;paint-order:stroke fill markers"
       id="rect1402" />
    <text
       id="text1424"
       y="106.34683"
       x="83.280159"
       style="font-size:10.5833px;line-height:0;font-family:sans-serif;letter-spacing:0px;word-spacing:0px;stroke-width:0.264583"
       xml:space="preserve"><tspan
         style="stroke-width:0.264583"
         y="106.34683"
         x="83.280159"
         id="tspan1422"
         sodipodi:role="line" /></text>
  </g>
</svg>
