<?xml version="1.0" encoding="UTF-8" standalone="no"?>
<svg
   xmlns:dc="http://purl.org/dc/elements/1.1/"
   xmlns:cc="http://creativecommons.org/ns#"
   xmlns:rdf="http://www.w3.org/1999/02/22-rdf-syntax-ns#"
   xmlns:svg="http://www.w3.org/2000/svg"
   xmlns="http://www.w3.org/2000/svg"
   xmlns:sodipodi="http://sodipodi.sourceforge.net/DTD/sodipodi-0.dtd"
   xmlns:inkscape="http://www.inkscape.org/namespaces/inkscape"
   inkscape:version="1.0 (4035a4fb49, 2020-05-01)"
   sodipodi:docname="sociology.svg"
   id="svg6"
   version="1.1"
   width="510.99808pt"
   viewBox="0 -25 511.99607 460.60822"
   height="460.60822pt">
  <metadata
     id="metadata12">
    <rdf:RDF>
      <cc:Work
         rdf:about="">
        <dc:format>image/svg+xml</dc:format>
        <dc:type
           rdf:resource="http://purl.org/dc/dcmitype/StillImage" />
        <dc:title></dc:title>
      </cc:Work>
    </rdf:RDF>
  </metadata>
  <defs
     id="defs10" />
  <sodipodi:namedview
     inkscape:current-layer="svg6"
     inkscape:window-maximized="0"
     inkscape:window-y="37"
     inkscape:window-x="10"
     inkscape:cy="411.32124"
     inkscape:cx="328.56021"
     inkscape:zoom="0.4234354"
     fit-margin-bottom="0"
     fit-margin-right="0"
     fit-margin-left="0"
     fit-margin-top="0"
     showgrid="false"
     id="namedview8"
     inkscape:window-height="719"
     inkscape:window-width="1344"
     inkscape:pageshadow="2"
     inkscape:pageopacity="0"
     guidetolerance="10"
     gridtolerance="10"
     objecttolerance="10"
     borderopacity="1"
     bordercolor="#666666"
     pagecolor="#ffffff" />
  <path
     transform="matrix(0.75146479,0,0,0.75146479,0,-25.449795)"
     d="M 313.78906 -0.06640625 C 308.22182 -0.06640625 303.70898 4.4464197 303.70898 10.013672 L 303.70898 46.769531 C 297.965 49.332235 292.51673 52.482519 287.41211 56.199219 L 255.5625 37.808594 C 253.24931 36.47266 250.49431 36.114621 247.91602 36.800781 C 245.33251 37.497337 243.12889 39.181612 241.79297 41.5 L 214.91797 88.048828 C 212.13174 92.87274 213.78546 99.032134 218.60938 101.81836 L 249.29492 119.53906 L 210.3125 119.53906 C 160.2904 119.53906 119.59961 160.23115 119.59961 210.24805 L 119.59961 331.31836 C 111.19415 332.60231 103.09049 335.45642 95.755859 339.8125 C 90.968335 342.65591 89.392923 348.84072 92.236328 353.62305 C 95.079733 358.41056 101.2665 359.98598 106.04883 357.14258 C 113.17034 352.91646 121.34181 350.68164 129.67969 350.68164 C 155.24435 350.68164 176.04102 371.48026 176.04102 397.04492 L 176.04102 417.20312 C 176.04102 442.76778 155.24435 463.56641 129.67969 463.56641 C 104.11503 463.56641 83.316406 442.76778 83.316406 417.20312 L 83.316406 397.04492 C 83.316406 393.92601 83.628141 390.81116 84.236328 387.79102 C 85.338342 382.33292 81.813559 377.01607 76.355469 375.91406 C 70.886982 374.80684 65.58053 378.34073 64.478516 383.79883 C 63.605221 388.1289 63.158203 392.59009 63.158203 397.04492 L 63.158203 417.20312 C 63.158203 438.32333 73.065879 457.16053 88.462891 469.35547 L 60.953125 478.90625 C 24.498281 491.55862 0 525.99597 0 564.59766 L 0 604 C 0 609.56206 4.5128259 614.07812 10.080078 614.07812 L 287.58398 614.07812 L 334.70117 614.07812 L 671.25586 614.07812 C 676.81792 614.07812 681.33008 609.56206 681.33008 604 L 681.33008 564.59766 C 681.33528 525.99597 656.83698 491.55862 620.37695 478.90625 L 592.87305 469.35547 C 608.27006 457.16053 618.17383 438.32333 618.17383 417.20312 L 618.17383 397.04492 C 618.17383 392.59009 617.732 388.1289 616.85352 383.79883 C 615.75149 378.34073 610.4327 374.80684 604.97461 375.91406 C 599.52171 377.01607 595.99174 382.33292 597.09375 387.79102 C 597.70714 390.81116 598.01367 393.92601 598.01367 397.04492 L 598.01367 417.20312 C 598.01367 442.76778 577.217 463.56641 551.65234 463.56641 C 526.0877 463.56641 505.28906 442.76778 505.28906 417.20312 L 505.28906 397.04492 C 505.28906 371.48026 526.0877 350.68164 551.65234 350.68164 C 559.99023 350.68164 568.16169 352.91646 575.2832 357.14258 C 580.07072 359.98598 586.25555 358.41056 589.09375 353.62305 C 591.93716 348.84072 590.36175 342.65591 585.57422 339.8125 C 578.24479 335.45642 570.13593 332.60231 561.73047 331.31836 L 561.73047 210.24805 C 561.73047 160.23115 521.04034 119.53906 471.02344 119.53906 L 432.03711 119.53906 L 462.72656 101.81836 C 467.54527 99.032134 469.19833 92.87274 466.41211 88.048828 L 439.53711 41.5 C 438.20119 39.181612 435.99822 37.497337 433.41992 36.800781 C 430.84162 36.114621 428.08597 36.47266 425.76758 37.808594 L 393.91797 56.199219 C 388.81336 52.482519 383.36509 49.332235 377.62109 46.769531 L 377.62109 10.013672 C 377.62109 4.4464197 373.11023 -0.06640625 367.54297 -0.06640625 L 313.78906 -0.06640625 z M 427.11914 60.306641 L 427.7832 61.457031 C 427.48713 61.256095 427.17821 61.073212 426.84375 60.919922 C 426.67409 60.845314 426.50401 60.8048 426.33398 60.759766 L 427.11914 60.306641 z M 238.21484 88.017578 C 238.34896 88.649008 238.6326 89.252289 239.0625 89.755859 C 239.44341 90.212988 239.85302 90.638291 240.27539 91.050781 L 237.41602 89.400391 L 238.21484 88.017578 z M 340.66797 112.81836 C 349.93113 112.81836 357.46289 120.35012 357.46289 129.61328 C 357.46289 138.87644 349.93113 146.41406 340.66797 146.41406 C 331.40481 146.41406 323.87305 138.87644 323.87305 129.61328 C 323.87305 120.35012 331.40481 112.81836 340.66797 112.81836 z M 210.3125 139.69336 L 249.29883 139.69336 L 218.60938 157.41406 C 213.79067 160.1951 212.1376 166.35903 214.92383 171.17773 L 241.79883 217.73242 C 243.13477 220.04561 245.33772 221.73638 247.91602 222.42773 C 250.49952 223.11909 253.24997 222.7591 255.56836 221.41797 L 287.41797 203.0332 C 292.52259 206.74471 297.97085 209.90019 303.71484 212.46289 L 303.71484 249.21875 C 303.71484 254.78601 308.22571 259.29688 313.79297 259.29688 L 330.58789 259.29688 L 330.58789 331.28125 C 298.67626 336.15715 274.14648 363.78696 274.14648 397.04492 L 274.14648 417.20312 C 274.14648 438.32333 284.05416 457.16053 299.45117 469.35547 L 271.94336 478.90625 C 257.57558 483.8965 245.07835 492.2754 235.19141 502.94727 C 225.14853 492.06228 212.63757 483.84451 198.41016 478.90625 L 170.90039 469.35547 C 186.2974 457.16053 196.20508 438.32333 196.20508 417.20312 L 196.20508 397.04492 C 196.20508 363.79216 171.67531 336.15715 139.76367 331.28125 L 139.76367 210.24805 C 139.76367 171.34485 171.40931 139.69336 210.3125 139.69336 z M 432.03711 139.69336 L 471.02344 139.69336 C 509.92663 139.69336 541.57813 171.34485 541.57812 210.24805 L 541.57812 331.28125 C 509.6613 336.15715 485.13672 363.78696 485.13672 397.04492 L 485.13672 417.20312 C 485.13672 438.32333 495.03854 457.16053 510.43555 469.35547 L 482.93164 478.90625 C 468.69902 483.84453 456.18741 492.06162 446.14453 502.94141 C 436.25759 492.26954 423.76036 483.8913 409.39258 478.90625 L 381.88867 469.35547 C 397.28569 457.16053 407.18945 438.32333 407.18945 417.20312 L 407.18945 397.04492 C 407.18945 363.79216 382.65968 336.15715 350.74805 331.28125 L 350.74805 259.29688 L 367.54297 259.29688 C 373.11023 259.29688 377.62109 254.78601 377.62109 249.21875 L 377.62109 212.46289 C 383.37028 209.90019 388.81402 206.74471 393.92383 203.0332 L 425.76758 221.41797 C 428.08597 222.7591 430.83642 223.11909 433.41992 222.42773 C 436.00341 221.73638 438.20119 220.04561 439.53711 217.73242 L 466.41797 171.17773 C 469.199 166.35903 467.54527 160.1951 462.72656 157.41406 L 432.03711 139.69336 z M 237.69141 169.67383 C 237.63472 169.80721 237.59215 169.94259 237.56055 170.08203 L 237.41602 169.83203 L 237.69141 169.67383 z M 340.66797 350.68164 C 366.23263 350.68164 387.03125 371.48026 387.03125 397.04492 L 387.03125 417.20312 C 387.03125 442.76778 366.23263 463.56641 340.66797 463.56641 C 315.10331 463.56641 294.30469 442.76778 294.30469 417.20312 L 294.30469 397.04492 C 294.30469 371.48026 315.10331 350.68164 340.66797 350.68164 z M 108.5332 483.72461 L 150.83008 483.72461 L 160.61914 487.12305 L 129.67969 540.80469 L 98.744141 487.12305 L 108.5332 483.72461 z M 319.52148 483.72461 L 361.81445 483.72461 L 371.60156 487.12305 L 340.66797 540.80469 L 309.72852 487.12305 L 319.52148 483.72461 z M 530.50586 483.72461 L 572.79883 483.72461 L 582.5918 487.12305 L 551.65234 540.80469 L 520.7168 487.12305 L 530.50586 483.72461 z "
     style="fill:#ffffff;fill-opacity:1;stroke-width:1.33073"
     id="path2" />
</svg>
