<?xml version="1.0" encoding="UTF-8" standalone="no"?>
<svg
   xmlns:dc="http://purl.org/dc/elements/1.1/"
   xmlns:cc="http://creativecommons.org/ns#"
   xmlns:rdf="http://www.w3.org/1999/02/22-rdf-syntax-ns#"
   xmlns:svg="http://www.w3.org/2000/svg"
   xmlns="http://www.w3.org/2000/svg"
   xmlns:sodipodi="http://sodipodi.sourceforge.net/DTD/sodipodi-0.dtd"
   xmlns:inkscape="http://www.inkscape.org/namespaces/inkscape"
   inkscape:version="1.0 (4035a4fb49, 2020-05-01)"
   height="505"
   width="467.20001"
   sodipodi:docname="suggestion.svg"
   id="svg28"
   xml:space="preserve"
   enable-background="new 0 0 1000 1000"
   viewBox="0 0 467.20001 505"
   y="0px"
   x="0px"
   version="1.1"><defs
   id="defs32" /><sodipodi:namedview
   inkscape:current-layer="svg28"
   inkscape:window-maximized="0"
   inkscape:window-y="53"
   inkscape:window-x="10"
   inkscape:cy="34.580015"
   inkscape:cx="431.81664"
   inkscape:zoom="0.35355339"
   fit-margin-bottom="0"
   fit-margin-right="0"
   fit-margin-left="0"
   fit-margin-top="0"
   showgrid="false"
   id="namedview30"
   inkscape:window-height="704"
   inkscape:window-width="1344"
   inkscape:pageshadow="2"
   inkscape:pageopacity="0"
   guidetolerance="10"
   gridtolerance="10"
   objecttolerance="10"
   borderopacity="1"
   bordercolor="#666666"
   pagecolor="#ffffff" />
<metadata
   id="metadata2"> Svg Vector Icons : http://www.onlinewebfonts.com/icon <rdf:RDF><cc:Work
     rdf:about=""><dc:format>image/svg+xml</dc:format><dc:type
       rdf:resource="http://purl.org/dc/dcmitype/StillImage" /><dc:title></dc:title></cc:Work></rdf:RDF></metadata>
<path
   style="fill:#ffffff;fill-opacity:1"
   d="m 360.1,211.2 c -4.2,4.5 -8.1,7.6 -11,8.3 5.3,-1.3 8.9,-4.7 11,-8.3 z"
   id="path4" /><path
   style="fill:#ffffff;fill-opacity:1"
   d="M 224.9,36.2"
   id="path6" /><path
   style="fill:#ffffff;fill-opacity:1"
   d="M 420.4,274"
   id="path8" /><path
   style="fill:#ffffff;fill-opacity:1"
   d="M 247.4,0"
   id="path10" /><path
   style="fill:#ffffff;fill-opacity:1"
   d="M 32.2,191.6 9.5,209.3 32.2,226.9 Z"
   id="path12" /><path
   style="fill:#ffffff;fill-opacity:1"
   d="M 0,239.8 V 489.5 L 160.9,364.6 Z"
   id="path14" /><path
   style="fill:#ffffff;fill-opacity:1"
   d="m 434.9,191.6 v 35.3 l 22.8,-17.7 z"
   id="path16" /><path
   style="fill:#ffffff;fill-opacity:1"
   d="M 405.1,250.1 V 37.7 H 62.1 V 250.1 L 233.6,383 Z M 95.5,116.5 c 0,-8.3 6.7,-15 15,-15 h 248.6 c 8.3,0 15,6.7 15,15 0,8.3 -6.7,15 -15,15 H 110.4 c -8.2,-0.1 -14.9,-6.8 -14.9,-15 z m 56.8,80.1 c 0,-8.3 6.7,-15 14.9,-15 h 124.3 c 8.2,0 14.9,6.7 14.9,15 0,8.2 -6.7,14.9 -14.9,14.9 H 167.2 c -8.2,0 -14.9,-6.7 -14.9,-14.9 z"
   id="path18" /><path
   style="fill:#ffffff;fill-opacity:1"
   d="m 242.8,413.8 c -5.4,4.1 -13.2,4 -18.3,0 L 185.5,383.5 28.7,505 H 438.4 L 281.8,383.5 Z"
   id="path22" /><path
   style="fill:#ffffff;fill-opacity:1"
   d="M 467.2,489.4 V 239.8 l -161,124.8 z"
   id="path24" />
</svg>
