<?xml version="1.0" encoding="UTF-8" standalone="no"?>
<svg
   xmlns:dc="http://purl.org/dc/elements/1.1/"
   xmlns:cc="http://creativecommons.org/ns#"
   xmlns:rdf="http://www.w3.org/1999/02/22-rdf-syntax-ns#"
   xmlns:svg="http://www.w3.org/2000/svg"
   xmlns="http://www.w3.org/2000/svg"
   xmlns:sodipodi="http://sodipodi.sourceforge.net/DTD/sodipodi-0.dtd"
   xmlns:inkscape="http://www.inkscape.org/namespaces/inkscape"
   inkscape:version="1.0 (4035a4fb49, 2020-05-01)"
   sodipodi:docname="erlenmeyer.svg"
   id="svg30"
   preserveAspectRatio="xMidYMid meet"
   viewBox="0 0 1121.000000 1280.000000"
   height="1280.000000pt"
   width="1121.000000pt"
   version="1.0">
  <defs
     id="defs34" />
  <sodipodi:namedview
     inkscape:current-layer="svg30"
     inkscape:window-maximized="0"
     inkscape:window-y="37"
     inkscape:window-x="10"
     inkscape:cy="-205.42119"
     inkscape:cx="-1128.5499"
     inkscape:zoom="0.072916402"
     showgrid="false"
     id="namedview32"
     inkscape:window-height="719"
     inkscape:window-width="1344"
     inkscape:pageshadow="2"
     inkscape:pageopacity="0"
     guidetolerance="10"
     gridtolerance="10"
     objecttolerance="10"
     borderopacity="1"
     bordercolor="#666666"
     pagecolor="#ffffff" />
  <metadata
     id="metadata2">
Created by potrace 1.15, written by Peter Selinger 2001-2017
<rdf:RDF>
  <cc:Work
     rdf:about="">
    <dc:format>image/svg+xml</dc:format>
    <dc:type
       rdf:resource="http://purl.org/dc/dcmitype/StillImage" />
    <dc:title></dc:title>
  </cc:Work>
</rdf:RDF>
</metadata>
  <g
     style="fill:#ffffff;fill-opacity:1"
     id="g28"
     stroke="none"
     fill="#000000"
     transform="translate(0.000000,1280.000000) scale(0.100000,-0.100000)">
    <path
       style="fill:#ffffff;fill-opacity:1"
       id="path4"
       d="M3400 12577 c-19 -6 -53 -30 -76 -52 -52 -52 -69 -111 -53 -185 9 -44 25 -66 121 -173 299 -330 408 -563 438 -937 6 -69 16 -836 24 -1705 l13 -1580 -412 -615 c-226 -338 -968 -1447 -1647 -2465 -1172 -1755 -1239 -1859 -1321 -2025 -190 -390 -277 -732 -277 -1092 0 -849 530 -1446 1359 -1528 143 -14 7911 -14 8036 0 399 46 730 192 980 432 112 107 192 212 259 338 165 315 200 724 96 1136 -82 324 -261 684 -505 1014 -35 47 -755 1145 -1601 2440 l-1539 2355 -2 75 c-18 533 -56 2395 -57 2785 -1 451 1 521 17 605 57 302 173 519 420 787 95 103 112 138 105 219 -6 69 -46 128 -107 161 l-44 23 -2096 -1 c-1507 -1 -2106 -4 -2131 -12z m3741 -429 c-158 -240 -253 -460 -292 -675 -27 -152 -41 -420 -33 -635 l7 -187 -487 -1 c-416 0 -492 -2 -524 -16 -153 -63 -164 -282 -19 -365 l42 -24 498 -3 497 -3 1 -127 c0 -70 8 -423 17 -785 l17 -657 -100 0 c-377 -1 -930 -12 -949 -19 -39 -15 -88 -64 -107 -106 -47 -102 5 -236 106 -275 27 -10 314 -16 963 -19 l102 -1 0 -179 c0 -98 4 -202 10 -230 8 -43 68 -141 384 -624 206 -314 372 -574 370 -576 -2 -2 -223 -3 -491 -2 -311 1 -507 -3 -539 -9 -187 -39 -221 -286 -54 -380 l45 -25 604 -2 c514 -1 612 1 649 14 24 8 46 13 48 11 7 -8 556 -852 560 -862 5 -13 -462 -12 -3406 4 -1053 5 -2023 10 -2156 10 l-241 0 803 1204 c665 998 804 1211 809 1247 4 24 2 510 -4 1079 -6 569 -11 1280 -11 1581 0 632 -9 795 -56 1014 -35 161 -128 370 -244 548 l-59 92 417 5 c229 3 963 6 1630 8 l1214 2 -21 -32z m-6011 -11384 c0 -2 -9 0 -20 6 -11 6 -20 13 -20 16 0 2 9 0 20 -6 11 -6 20 -13 20 -16z m110 -49 c14 -8 21 -14 15 -14 -5 0 -21 6 -35 14 -14 8 -20 14 -15 14 6 0 21 -6 35 -14z" />
    <path
       style="fill:#ffffff;fill-opacity:1"
       id="path6"
       d="M6751 12025 c-89 -48 -94 -55 -39 -55 41 0 50 4 71 33 26 35 40 57 35 57 -2 0 -32 -16 -67 -35z" />
    <path
       style="fill:#ffffff;fill-opacity:1"
       id="path8"
       d="M4382 11944 c75 -102 136 -250 168 -404 11 -53 13 -189 38 -2345 8 -637 9 -663 10 -282 2 340 5 424 16 445 8 15 29 65 46 112 18 47 41 104 51 127 11 24 19 47 19 53 0 6 9 29 19 53 10 23 42 103 71 177 29 74 61 154 71 177 10 24 19 47 19 53 0 6 9 29 19 53 40 88 121 304 135 362 13 53 33 109 82 235 7 19 14 67 16 105 1 39 5 -22 8 -135 5 -153 6 -105 5 185 0 386 -1 391 -24 450 -63 160 -203 297 -451 443 -70 40 -309 166 -344 181 -6 2 6 -18 26 -45z" />
    <path
       style="fill:#ffffff;fill-opacity:1"
       id="path10"
       d="M5184 10125 c0 -82 2 -115 3 -72 2 43 2 110 0 150 -1 40 -3 5 -3 -78z" />
    <path
       style="fill:#ffffff;fill-opacity:1"
       id="path12"
       d="M4591 8444 c0 -11 3 -14 6 -6 3 7 2 16 -1 19 -3 4 -6 -2 -5 -13z" />
    <path
       style="fill:#ffffff;fill-opacity:1"
       id="path14"
       d="M3590 6050 c-6 -11 -8 -20 -6 -20 3 0 10 9 16 20 6 11 8 20 6 20 -3 0 -10 -9 -16 -20z" />
    <path
       style="fill:#ffffff;fill-opacity:1"
       id="path16"
       d="M3510 5920 c-6 -11 -8 -20 -6 -20 3 0 10 9 16 20 6 11 8 20 6 20 -3 0 -10 -9 -16 -20z" />
    <path
       style="fill:#ffffff;fill-opacity:1"
       id="path18"
       d="M3460 5840 c-6 -11 -8 -20 -6 -20 3 0 10 9 16 20 6 11 8 20 6 20 -3 0 -10 -9 -16 -20z" />
    <path
       style="fill:#ffffff;fill-opacity:1"
       id="path20"
       d="M3434 5798 c-4 -7 -14 -24 -22 -38 -14 -24 -13 -24 3 -5 20 24 37 55 31 55 -3 0 -8 -6 -12 -12z" />
    <path
       style="fill:#ffffff;fill-opacity:1"
       id="path22"
       d="M3380 5710 c-6 -11 -8 -20 -6 -20 3 0 10 9 16 20 6 11 8 20 6 20 -3 0 -10 -9 -16 -20z" />
    <path
       style="fill:#ffffff;fill-opacity:1"
       id="path24"
       d="M3354 5668 c-4 -7 -14 -24 -22 -38 -14 -24 -13 -24 3 -5 20 24 37 55 31 55 -3 0 -8 -6 -12 -12z" />
    <path
       style="fill:#ffffff;fill-opacity:1"
       id="path26"
       d="M3256 5509 c-67 -109 -74 -133 -10 -34 50 79 77 125 70 125 -2 0 -29 -41 -60 -91z" />
  </g>
</svg>
