<?xml version="1.0" encoding="UTF-8" standalone="no"?>
<svg
   xmlns:dc="http://purl.org/dc/elements/1.1/"
   xmlns:cc="http://creativecommons.org/ns#"
   xmlns:rdf="http://www.w3.org/1999/02/22-rdf-syntax-ns#"
   xmlns:svg="http://www.w3.org/2000/svg"
   xmlns="http://www.w3.org/2000/svg"
   xmlns:sodipodi="http://sodipodi.sourceforge.net/DTD/sodipodi-0.dtd"
   xmlns:inkscape="http://www.inkscape.org/namespaces/inkscape"
   sodipodi:docname="pencil.svg"
   inkscape:version="1.0 (4035a4fb49, 2020-05-01)"
   id="svg8"
   version="1.1"
   viewBox="0 0 126.19419 126.30161"
   height="126.30161mm"
   width="126.19419mm">
  <defs
     id="defs2" />
  <sodipodi:namedview
     inkscape:window-maximized="1"
     inkscape:window-y="37"
     inkscape:window-x="10"
     inkscape:window-height="719"
     inkscape:window-width="1344"
     fit-margin-bottom="0"
     fit-margin-right="0"
     fit-margin-left="0"
     fit-margin-top="0"
     inkscape:snap-object-midpoints="false"
     showgrid="false"
     inkscape:document-rotation="0"
     inkscape:current-layer="layer1"
     inkscape:document-units="mm"
     inkscape:cy="336.1326"
     inkscape:cx="109.36849"
     inkscape:zoom="0.36902247"
     inkscape:pageshadow="2"
     inkscape:pageopacity="0.0"
     borderopacity="1.0"
     bordercolor="#666666"
     pagecolor="#ffffff"
     id="base" />
  <metadata
     id="metadata5">
    <rdf:RDF>
      <cc:Work
         rdf:about="">
        <dc:format>image/svg+xml</dc:format>
        <dc:type
           rdf:resource="http://purl.org/dc/dcmitype/StillImage" />
        <dc:title></dc:title>
      </cc:Work>
    </rdf:RDF>
  </metadata>
  <g
     transform="translate(-36.315212,-78.773902)"
     id="layer1"
     inkscape:groupmode="layer"
     inkscape:label="Calque 1">
    <path
       d="m 75.169137,199.72983 c 1.16016,-1.21482 0.9945,-3.53896 -0.7374,-5.27137 L 46.932264,166.95899 c -2.30987,-2.30919 -5.671969,-1.8339 -6.05334,0.85578 l -4.529957,32.03053 c -0.379272,2.69001 2.506449,5.57573 5.19646,5.19646 l 32.03053,-4.52995 c 0.67242,-0.0953 1.20646,-0.37704 1.59318,-0.78198 z m 86.476623,-86.90488 c 1.15152,-1.15152 1.15152,-3.00535 0,-4.15687 l -5.92984,-5.92984 c -1.15152,-1.15152 -3.00535,-1.15152 -4.15687,0 l -81.033513,81.03351 c -1.15153,1.15153 -1.15153,3.00536 0,4.15688 l 5.92983,5.92984 c 1.15152,1.15152 3.00535,1.15152 4.15688,-1e-5 z m -11.55017,-11.55016 c 1.15152,-1.15152 1.15152,-3.005357 0,-4.15688 l -5.92983,-5.929833 c -1.15153,-1.151524 -3.00572,-1.151887 -4.15725,-3.65e-4 L 58.975002,172.22122 c -1.151523,1.15152 -1.151158,3.00572 3.65e-4,4.15724 l 5.92983,5.92984 c 1.15153,1.15152 3.00536,1.15152 4.15688,0 z M 138.54506,89.724256 c 1.15152,-1.151522 1.15152,-3.005355 0,-4.156879 l -5.92984,-5.929833 c -1.15152,-1.151523 -3.00535,-1.151521 -4.15687,0 L 47.424835,160.67105 c -1.151524,1.15153 -1.151524,3.00536 0,4.15688 l 5.929833,5.92983 c 1.151523,1.15153 3.005355,1.15153 4.156878,0 z"
       style="fill:#ffffff;fill-opacity:1;stroke:none;stroke-width:1.8285;stroke-linecap:round;stroke-miterlimit:4;stroke-dasharray:none;paint-order:stroke fill markers"
       id="rect833" />
  </g>
</svg>
