<?xml version="1.0" encoding="UTF-8" standalone="no"?>
<svg
   xmlns:dc="http://purl.org/dc/elements/1.1/"
   xmlns:cc="http://creativecommons.org/ns#"
   xmlns:rdf="http://www.w3.org/1999/02/22-rdf-syntax-ns#"
   xmlns:svg="http://www.w3.org/2000/svg"
   xmlns="http://www.w3.org/2000/svg"
   xmlns:sodipodi="http://sodipodi.sourceforge.net/DTD/sodipodi-0.dtd"
   xmlns:inkscape="http://www.inkscape.org/namespaces/inkscape"
   inkscape:version="1.0 (4035a4fb49, 2020-05-01)"
   sodipodi:docname="virus.svg"
   id="svg4"
   version="1.1"
   clip-rule="evenodd"
   fill-rule="evenodd"
   image-rendering="optimizeQuality"
   text-rendering="geometricPrecision"
   shape-rendering="geometricPrecision"
   viewBox="0 0 333334 318313">
  <metadata
     id="metadata10">
    <rdf:RDF>
      <cc:Work
         rdf:about="">
        <dc:format>image/svg+xml</dc:format>
        <dc:type
           rdf:resource="http://purl.org/dc/dcmitype/StillImage" />
        <dc:title></dc:title>
      </cc:Work>
    </rdf:RDF>
  </metadata>
  <defs
     id="defs8" />
  <sodipodi:namedview
     inkscape:current-layer="svg4"
     inkscape:window-maximized="0"
     inkscape:window-y="37"
     inkscape:window-x="10"
     inkscape:cy="73175.399"
     inkscape:cx="307800.63"
     inkscape:zoom="0.01"
     showgrid="false"
     id="namedview6"
     inkscape:window-height="719"
     inkscape:window-width="1344"
     inkscape:pageshadow="2"
     inkscape:pageopacity="0"
     guidetolerance="10"
     gridtolerance="10"
     objecttolerance="10"
     borderopacity="1"
     bordercolor="#666666"
     pagecolor="#ffffff" />
  <path
     style="fill:#ffffff;fill-opacity:1"
     id="path2"
     d="M147455 104860c12754 0 23093 10339 23093 23093 0 12753-10339 23093-23093 23093-12753 0-23093-10340-23093-23093 0-12754 10339-23093 23093-23093zm-16787-85659c-4064-9061-14704-13111-23765-9047s-13111 14704-9047 23765c2680 5974 8219 9770 14279 10498l10663 21015c-9994 4875-19051 11372-26828 19149-584 584-1161 1176-1731 1775L68666 72742c326-3394-57-6911-1250-10343-4433-12748-18361-19490-31109-15057S16818 65703 21250 78451c4433 12748 18361 19489 31109 15057 2684-933 5102-2287 7205-3963l22723 12097c-7336 11535-12364 24681-14437 38787l-18616 269c-3130-4619-8358-7720-14361-7898-9926-294-18211 7515-18505 17441s7515 18211 17441 18505c6827 202 12878-3429 16086-8945l16993-246c356 7963 1645 15684 3763 23054l-46111 24946c-2872-1128-6072-1531-9341-1019-9811 1538-16517 10739-14978 20549 1538 9811 10738 16517 20549 14978 9259-1452 15752-9729 15159-18903l41826-22628c4759 9257 10925 17673 18216 24963 554 554 1115 1101 1681 1642l-20761 29347c-3737-843-7727-819-11684 241-13037 3493-20774 16894-17281 29931s16894 20774 29931 17281c13037-3494 20774-16894 17281-29931-619-2311-1551-4454-2736-6399l20272-28656c11757 7547 25204 12691 39647 14738l-3444 27810c-9466 4689-13464 16119-8923 25705 4590 9690 16167 13824 25857 9234s13824-16167 9234-25857c-1602-3382-4055-6086-6982-7980l3474-28049c16340-826 31642-5589 44977-13358l7823 11058 10863 15354c-1185 1945-2117 4088-2736 6399-3493 13037 4244 26437 17281 29931 13037 3493 26438-4244 29931-17281 3494-13037-4243-26438-17281-29931-3957-1060-7947-1084-11683-241l-10787-15248-7912-11184c1674-1465 3301-2984 4873-4557 6606-6606 12288-14136 16837-22378l44148 15635c1897 7897 9004 13766 17483 13766 9930 0 17981-8050 17981-17981 0-9930-8050-17981-17981-17981-4310 0-8266 1517-11363 4046l-42662-15109c3079-9600 4743-19834 4743-30457 0-9611-1363-18902-3902-27695l23744-11596c2742 2153 6098 3594 9818 4010 10656 1191 20259-6482 21450-17138s-6483-20260-17139-21451c-10542-1178-20053 6320-21408 16798l-23569 11511c-4026-7817-9056-15033-14919-21476l32893-34447c2534 940 5268 1472 8124 1517 13496 207 24604-10565 24811-24061 207-13495-10565-24604-24060-24811-13496-207-24604 10565-24811 24061-56 3608 675 7044 2031 10148l-33163 34730c-9668-7216-20689-12719-32614-16058l2899-24428c6157-2500 10684-8331 11182-15406 696-9906-6770-18501-16676-19198-9906-696-18501 6770-19197 16676-400 5689 1893 10946 5794 14522l-2904 24471c-2648-211-5325-320-8028-320-8843 0-17417 1154-25580 3316l-11415-22496c3130-4929 3804-11286 1235-17013zm91915 79681c-14370-14370-34224-23259-56155-23259s-41785 8889-56155 23259-23259 34224-23259 56155 8889 41785 23259 56156c14370 14370 34224 23259 56155 23259s41785-8889 56155-23259 23259-34225 23259-56156-8889-41785-23259-56155zm-15527 31892c7315 0 13246 5931 13246 13246s-5931 13246-13246 13246-13246-5931-13246-13246 5931-13246 13246-13246zm-40943 37316c12754 0 23093 10339 23093 23093 0 12753-10339 23093-23093 23093-12753 0-23093-10340-23093-23093 0-12754 10339-23093 23093-23093z" />
</svg>
