<?xml version="1.0" encoding="UTF-8" standalone="no"?>
<svg
   xmlns:dc="http://purl.org/dc/elements/1.1/"
   xmlns:cc="http://creativecommons.org/ns#"
   xmlns:rdf="http://www.w3.org/1999/02/22-rdf-syntax-ns#"
   xmlns:svg="http://www.w3.org/2000/svg"
   xmlns="http://www.w3.org/2000/svg"
   xmlns:sodipodi="http://sodipodi.sourceforge.net/DTD/sodipodi-0.dtd"
   xmlns:inkscape="http://www.inkscape.org/namespaces/inkscape"
   inkscape:version="1.0 (4035a4fb49, 2020-05-01)"
   sodipodi:docname="wrench.svg"
   xml:space="preserve"
   style="enable-background:new 0 0 479.79 479.79;"
   viewBox="0 0 479.79 479.79"
   height="479.79px"
   width="479.79px"
   y="0px"
   x="0px"
   id="Capa_1"
   version="1.1"><metadata
   id="metadata41"><rdf:RDF><cc:Work
       rdf:about=""><dc:format>image/svg+xml</dc:format><dc:type
         rdf:resource="http://purl.org/dc/dcmitype/StillImage" /><dc:title></dc:title></cc:Work></rdf:RDF></metadata><defs
   id="defs39" /><sodipodi:namedview
   inkscape:current-layer="Capa_1"
   inkscape:window-maximized="0"
   inkscape:window-y="37"
   inkscape:window-x="10"
   inkscape:cy="239.895"
   inkscape:cx="95.631058"
   inkscape:zoom="1.2234519"
   showgrid="false"
   id="namedview37"
   inkscape:window-height="719"
   inkscape:window-width="1344"
   inkscape:pageshadow="2"
   inkscape:pageopacity="0"
   guidetolerance="10"
   gridtolerance="10"
   objecttolerance="10"
   borderopacity="1"
   bordercolor="#666666"
   pagecolor="#ffffff" />
<g
   style="fill:#ffffff;fill-opacity:1"
   id="g4">
	<path
   style="fill:#ffffff;fill-opacity:1"
   id="path2"
   d="M478.409,116.617c-0.368-4.271-3.181-7.94-7.2-9.403c-4.029-1.472-8.539-0.47-11.57,2.556l-62.015,62.011l-68.749-21.768   l-21.768-68.748l62.016-62.016c3.035-3.032,4.025-7.543,2.563-11.565c-1.477-4.03-5.137-6.837-9.417-7.207   c-37.663-3.245-74.566,10.202-101.247,36.887c-36.542,36.545-46.219,89.911-29.083,135.399c-1.873,1.578-3.721,3.25-5.544,5.053   L19.386,373.152c-0.073,0.071-0.145,0.149-0.224,0.219c-24.345,24.346-24.345,63.959,0,88.309   c24.349,24.344,63.672,24.048,88.013-0.298c0.105-0.098,0.201-0.196,0.297-0.305l193.632-208.621   c1.765-1.773,3.404-3.628,4.949-5.532c45.5,17.167,98.9,7.513,135.474-29.056C468.202,191.181,481.658,154.275,478.409,116.617z    M75.98,435.38c-8.971,8.969-23.5,8.963-32.47,0c-8.967-8.961-8.967-23.502,0-32.466c8.97-8.963,23.499-8.963,32.47,0   C84.947,411.878,84.947,426.419,75.98,435.38z" />
</g>
<g
   id="g6">
</g>
<g
   id="g8">
</g>
<g
   id="g10">
</g>
<g
   id="g12">
</g>
<g
   id="g14">
</g>
<g
   id="g16">
</g>
<g
   id="g18">
</g>
<g
   id="g20">
</g>
<g
   id="g22">
</g>
<g
   id="g24">
</g>
<g
   id="g26">
</g>
<g
   id="g28">
</g>
<g
   id="g30">
</g>
<g
   id="g32">
</g>
<g
   id="g34">
</g>
</svg>
